M48
;Layer_Color=9474304
;FILE_FORMAT=4:4
METRIC,LZ
;TYPE=PLATED
T01F00S00C0.3000
T02F00S00C0.7112
T03F00S00C1.1000
T04F00S00C1.4478
T05F00S00C1.5000
T06F00S00C3.5000
T07F00S00C5.4100
%
T01
X00498146Y00187364
X0047244Y0021463
X0079375Y0020689
X0087249Y00819483
T02
X0035306Y001524
T03
X0024022Y0093053
Y0095593
Y0098132
Y0100672
X0026562
Y0098132
Y0095593
Y0093053
X0029102
X0031642
Y0095593
Y0098132
Y0100672
X0034182
X0036722
Y0098132
Y0095593
X0034182
Y0098132
Y0093053
X0036722
X0039262
Y0095593
Y0098132
Y0100672
X0029102
Y0098132
Y0095593
X0041802
Y0098132
Y0100672
X0044342
X0046882
Y0098132
Y0095593
Y0093053
X0044342
Y0095593
Y0098132
X0049422
Y0095593
X0051962
Y0098132
Y0100672
X0054502
X0057042
Y0098132
Y0095593
Y0093053
X0054502
Y0095593
Y0098132
X0059582
Y0095593
X0062122
Y0098132
X0064662
Y0095593
X0067202
Y0098132
Y0100672
X0064662
X0062122
X0059582
Y0093053
X0062122
X0064662
X0067202
X0069742
X0072282
Y0095593
Y0098132
Y0100672
X0074822
X0077362
Y0098132
Y0095593
X0074822
Y0098132
Y0093053
X0077362
X0069742Y0095593
Y0098132
Y0100672
X0049422
Y0093053
X0051962
X0041802
X0079902
X0082442
Y0095593
Y0098132
Y0100672
X0084982
X0087522
Y0098132
Y0095593
Y0093053
X0084982
Y0095593
Y0098132
X0079902
Y0095593
Y0100672
T04
X002032Y00276479
Y00327279
X0020574Y00396282
X00408366Y0033909
X00459165
X00549063
X00599863
X00689187
X00739987
X0082931
X0088011
Y0055499
X0082931
X00739987
X00689187
X00599863
X00549063
X00459275
X00408475
X0020447Y00566886
Y00516086
X0020574Y00447082
X0020447Y00635889
Y00686689
T05
X00574463Y0015366
X00574463Y0020066
X00574463Y0024766
X00714587
X00714586Y0020066
X00714587Y0015366
X00836931Y0076707
X0073025Y0076708
X0055753Y0076707
X0044577
X00445769Y0081407
X0044577Y0086107
X0055753
X00557529Y0081407
X00730249Y0081408
X0073025Y0086108
X00836931Y0086107
X0083693Y0081407
T06
X0015113Y0014928
X0095123
X0018923Y0100653
X0092583
T07
X0029591Y0029591
X0085471Y004445
Y0066167
X0095758Y0077343
X00714587Y0066167
X00574463Y0065786
X0043071
X00434339Y0044069
X00574463
X00714587Y004445
X0029591Y00415713
Y00535517
Y0065532
X0095758Y00889
M30
