G04*
G04 #@! TF.GenerationSoftware,Altium Limited,Altium Designer,26.6.0 (10)*
G04*
G04 Layer_Color=16711935*
G04 Board_Origin=0|0*
%FSLAX44Y44*%
%MOMM*%
G71*
G04*
G04 #@! TF.SameCoordinates,77C13DDD-3119-4C89-82F0-60C0F8CB9652*
G04*
G04*
G04 #@! TF.FilePolarity,Positive*
G04*
G01*
G75*
%ADD10C,0.1000*%
G36*
X387350Y212090D02*
Y240030D01*
X377190D01*
Y212090D01*
X387350D01*
D02*
G37*
D10*
X983830Y479568D02*
Y613850D01*
X983116Y612696D02*
X1002616Y632196D01*
X983830Y479568D02*
X1003298Y460100D01*
X125330Y494600D02*
Y605600D01*
X100330Y469600D02*
X125330Y494600D01*
X100330Y630600D02*
X125330Y605600D01*
X212330Y1058850D02*
X231330Y1039850D01*
X100330Y630600D02*
Y1058850D01*
X212330Y1058850D01*
X100330Y100000D02*
Y469600D01*
Y100000D02*
X372330D01*
X231330Y1039850D02*
X766330D01*
X455330Y100000D02*
X520700D01*
X770330Y83850D02*
Y100000D01*
X372330Y82850D02*
X445330D01*
Y100000D01*
X770330Y83850D02*
X841330D01*
X372330Y82850D02*
Y100000D01*
X841330Y83850D02*
Y100000D01*
X445330Y100000D02*
X455330D01*
X520700Y100000D02*
X770330Y100000D01*
X766330Y1039850D02*
X785330Y1058850D01*
X1003330D01*
X1003298Y460100D02*
X1003298Y100001D01*
X1003330Y633350D02*
Y1058850D01*
X841330Y100000D02*
X1003297D01*
M02*
