G04*
G04 #@! TF.GenerationSoftware,Altium Limited,Altium Designer,26.6.0 (10)*
G04*
G04 Layer_Physical_Order=1*
G04 Layer_Color=255*
G04 Board_Origin=0|0*
%FSLAX44Y44*%
%MOMM*%
G71*
G04*
G04 #@! TF.SameCoordinates,77C13DDD-3119-4C89-82F0-60C0F8CB9652*
G04*
G04*
G04 #@! TF.FilePolarity,Positive*
G04*
G01*
G75*
%ADD15R,1.4700X1.0400*%
%ADD16R,0.8000X0.8000*%
%ADD21C,1.9558*%
%ADD26C,1.0000*%
%ADD27C,0.3000*%
%ADD28C,2.5000*%
%ADD29C,8.1150*%
%ADD30C,1.6500*%
%ADD31C,6.0000*%
%ADD32C,1.2700*%
%ADD33C,0.6000*%
G36*
X211063Y1055791D02*
X229167Y1037687D01*
X230159Y1037024D01*
X231330Y1036791D01*
X766330D01*
X766330Y1036791D01*
X767501Y1037024D01*
X768493Y1037687D01*
X768493Y1037687D01*
X786597Y1055791D01*
X1000271D01*
Y902054D01*
X998771Y901856D01*
X998494Y902889D01*
X996332Y908110D01*
X993506Y913005D01*
X990065Y917489D01*
X986069Y921485D01*
X981585Y924926D01*
X976690Y927752D01*
X971469Y929914D01*
X966009Y931377D01*
X960406Y932115D01*
X958850D01*
Y889000D01*
Y845885D01*
X960406D01*
X966009Y846623D01*
X971469Y848085D01*
X976690Y850248D01*
X981585Y853074D01*
X986069Y856515D01*
X990065Y860511D01*
X993506Y864995D01*
X996332Y869890D01*
X998494Y875111D01*
X998771Y876144D01*
X1000271Y875946D01*
Y782558D01*
X998771Y782361D01*
X997530Y786991D01*
X995418Y792090D01*
X992659Y796869D01*
X989300Y801247D01*
X985397Y805150D01*
X981019Y808509D01*
X976240Y811268D01*
X971141Y813380D01*
X965811Y814809D01*
X960339Y815529D01*
X954821D01*
X949349Y814809D01*
X944019Y813380D01*
X938920Y811268D01*
X934141Y808509D01*
X929763Y805150D01*
X925860Y801247D01*
X922501Y796869D01*
X919742Y792090D01*
X917630Y786991D01*
X917115Y785069D01*
X915615Y785267D01*
Y873729D01*
X917115Y874027D01*
X918828Y869890D01*
X921654Y864995D01*
X925095Y860511D01*
X929091Y856515D01*
X933575Y853074D01*
X938470Y850248D01*
X943691Y848085D01*
X949151Y846623D01*
X954754Y845885D01*
X956310D01*
Y889000D01*
Y932115D01*
X954754D01*
X949151Y931377D01*
X943691Y929914D01*
X938470Y927752D01*
X933575Y924926D01*
X929091Y921485D01*
X925095Y917489D01*
X921654Y913005D01*
X918828Y908110D01*
X917115Y903973D01*
X915615Y904271D01*
Y954939D01*
X917041Y956365D01*
X978392D01*
X980350Y956623D01*
X982175Y957379D01*
X983741Y958581D01*
X989599Y964439D01*
X990801Y966005D01*
X991557Y967830D01*
X991815Y969788D01*
Y1032510D01*
X991815Y1032510D01*
X991557Y1034468D01*
X990801Y1036292D01*
X989599Y1037859D01*
X979055Y1048403D01*
X977488Y1049605D01*
X975664Y1050361D01*
X973706Y1050619D01*
X834774D01*
X832816Y1050361D01*
X830992Y1049605D01*
X829425Y1048403D01*
X819071Y1038049D01*
X817869Y1036482D01*
X817113Y1034658D01*
X816855Y1032700D01*
Y1012978D01*
X816599Y1012721D01*
X815312Y1010493D01*
X814646Y1008007D01*
Y1005433D01*
X815312Y1002947D01*
X816599Y1000719D01*
X818419Y998899D01*
X820647Y997612D01*
X823133Y996946D01*
X825707D01*
X828193Y997612D01*
X830421Y998899D01*
X832241Y1000719D01*
X833528Y1002947D01*
X834194Y1005433D01*
Y1008007D01*
X833528Y1010493D01*
X832241Y1012721D01*
X831985Y1012978D01*
Y1029567D01*
X837907Y1035489D01*
X907777D01*
X908264Y1033989D01*
X904632Y1031350D01*
X901010Y1027728D01*
X897999Y1023585D01*
X895674Y1019021D01*
X894091Y1014150D01*
X893290Y1009091D01*
Y1007800D01*
X925830D01*
X958370D01*
Y1009091D01*
X957569Y1014150D01*
X955986Y1019021D01*
X953661Y1023585D01*
X950650Y1027728D01*
X947028Y1031350D01*
X943396Y1033989D01*
X943883Y1035489D01*
X970573D01*
X976685Y1029377D01*
Y972921D01*
X975259Y971495D01*
X913908D01*
X911950Y971237D01*
X910126Y970481D01*
X908559Y969279D01*
X902701Y963421D01*
X901499Y961854D01*
X900743Y960030D01*
X900485Y958072D01*
Y745376D01*
X885320Y730211D01*
X654927D01*
X615474Y769664D01*
Y774564D01*
X609965D01*
X608558Y775147D01*
X606600Y775405D01*
X568912D01*
X568752Y775681D01*
X566141Y778292D01*
X562943Y780138D01*
X559376Y781094D01*
X555684D01*
X552117Y780138D01*
X548919Y778292D01*
X546308Y775681D01*
X544462Y772483D01*
X543506Y768916D01*
Y765224D01*
X544462Y761657D01*
X546308Y758459D01*
X548919Y755848D01*
X552117Y754002D01*
X555684Y753046D01*
X559376D01*
X562943Y754002D01*
X566141Y755848D01*
X568752Y758459D01*
X569801Y760275D01*
X603467D01*
X646445Y717297D01*
X648012Y716095D01*
X649836Y715339D01*
X650815Y715210D01*
X651794Y715081D01*
X651794Y715081D01*
X655662D01*
Y321310D01*
X656050Y319359D01*
X657155Y317705D01*
X658809Y316600D01*
X660760Y316212D01*
X732422D01*
Y229194D01*
X717599Y214371D01*
X716432Y214684D01*
X712740D01*
X709173Y213728D01*
X705975Y211882D01*
X703364Y209271D01*
X701518Y206073D01*
X700562Y202506D01*
Y198814D01*
X701518Y195247D01*
X703364Y192049D01*
X705975Y189438D01*
X709173Y187592D01*
X712740Y186636D01*
X716432D01*
X719999Y187592D01*
X723197Y189438D01*
X725808Y192049D01*
X727654Y195247D01*
X728610Y198814D01*
Y202506D01*
X728297Y203673D01*
X745336Y220712D01*
X746538Y222278D01*
X747294Y224103D01*
X747551Y226061D01*
X747551Y226061D01*
Y316212D01*
X910590D01*
X912541Y316600D01*
X914195Y317705D01*
X915300Y319359D01*
X915688Y321310D01*
Y716280D01*
X915300Y718231D01*
X914195Y719885D01*
X912541Y720990D01*
X910590Y721378D01*
X899843D01*
X899269Y722764D01*
X913399Y736894D01*
X914601Y738460D01*
X915357Y740285D01*
X915615Y742243D01*
X915615Y742243D01*
Y761593D01*
X917115Y761791D01*
X917630Y759869D01*
X919742Y754770D01*
X922501Y749991D01*
X925860Y745613D01*
X929763Y741710D01*
X934141Y738351D01*
X938920Y735592D01*
X944019Y733480D01*
X949349Y732051D01*
X954821Y731331D01*
X960339D01*
X965811Y732051D01*
X971141Y733480D01*
X976240Y735592D01*
X981019Y738351D01*
X985397Y741710D01*
X989300Y745613D01*
X992659Y749991D01*
X995418Y754770D01*
X997530Y759869D01*
X998771Y764500D01*
X1000271Y764302D01*
Y634177D01*
X982798Y616704D01*
X982660Y616676D01*
X981667Y616013D01*
X981004Y615021D01*
X980977Y614882D01*
X980953Y614859D01*
X980290Y613866D01*
X980057Y612696D01*
X980290Y611525D01*
X980771Y610805D01*
Y479568D01*
X980771Y479568D01*
X981004Y478398D01*
X981667Y477405D01*
X1000239Y458833D01*
X1000239Y103059D01*
X841330D01*
X840160Y102826D01*
X839167Y102163D01*
X838504Y101171D01*
X838271Y100000D01*
Y86909D01*
X773389D01*
Y100000D01*
X773156Y101170D01*
X772493Y102163D01*
X771500Y102826D01*
X770330Y103059D01*
X520700Y103059D01*
X455330D01*
X455329Y103059D01*
X445330D01*
X444160Y102826D01*
X443167Y102163D01*
X442504Y101171D01*
X442271Y100000D01*
Y85909D01*
X375389D01*
Y100000D01*
X375156Y101171D01*
X374493Y102163D01*
X373501Y102826D01*
X372330Y103059D01*
X103389D01*
Y468333D01*
X127493Y492437D01*
X127493Y492437D01*
X128156Y493429D01*
X128389Y494600D01*
Y605600D01*
X128156Y606771D01*
X127493Y607763D01*
X127493Y607763D01*
X103389Y631867D01*
Y1055791D01*
X211063Y1055791D01*
D02*
G37*
G36*
X910590Y321310D02*
X660760D01*
Y715081D01*
X888453D01*
X890411Y715339D01*
X891701Y715873D01*
X892235Y716095D01*
X892477Y716280D01*
X910590D01*
Y321310D01*
D02*
G37*
%LPC*%
G36*
X191791Y1039070D02*
X190500D01*
Y1007800D01*
X221770D01*
Y1009091D01*
X220969Y1014150D01*
X219386Y1019021D01*
X217061Y1023585D01*
X214050Y1027728D01*
X210428Y1031350D01*
X206285Y1034361D01*
X201721Y1036686D01*
X196850Y1038269D01*
X191791Y1039070D01*
D02*
G37*
G36*
X187960D02*
X186669D01*
X181610Y1038269D01*
X176739Y1036686D01*
X172175Y1034361D01*
X168032Y1031350D01*
X164410Y1027728D01*
X161399Y1023585D01*
X159074Y1019021D01*
X157491Y1014150D01*
X156690Y1009091D01*
Y1007800D01*
X187960D01*
Y1039070D01*
D02*
G37*
G36*
X876507Y1016494D02*
X873933D01*
X871447Y1015828D01*
X869219Y1014541D01*
X867399Y1012721D01*
X866112Y1010493D01*
X865446Y1008007D01*
Y1005433D01*
X866112Y1002947D01*
X867399Y1000719D01*
X869219Y998899D01*
X871447Y997612D01*
X873933Y996946D01*
X876507D01*
X878993Y997612D01*
X881221Y998899D01*
X883041Y1000719D01*
X884328Y1002947D01*
X884994Y1005433D01*
Y1008007D01*
X884328Y1010493D01*
X883041Y1012721D01*
X881221Y1014541D01*
X878993Y1015828D01*
X876507Y1016494D01*
D02*
G37*
G36*
X851107D02*
X848533D01*
X846047Y1015828D01*
X843819Y1014541D01*
X841999Y1012721D01*
X840712Y1010493D01*
X840046Y1008007D01*
Y1005433D01*
X840712Y1002947D01*
X841999Y1000719D01*
X843819Y998899D01*
X846047Y997612D01*
X848533Y996946D01*
X851107D01*
X853593Y997612D01*
X855821Y998899D01*
X857641Y1000719D01*
X858928Y1002947D01*
X859594Y1005433D01*
Y1008007D01*
X858928Y1010493D01*
X857641Y1012721D01*
X855821Y1014541D01*
X853593Y1015828D01*
X851107Y1016494D01*
D02*
G37*
G36*
X800307D02*
X797733D01*
X795247Y1015828D01*
X793019Y1014541D01*
X791199Y1012721D01*
X789912Y1010493D01*
X789246Y1008007D01*
Y1005433D01*
X789912Y1002947D01*
X791199Y1000719D01*
X793019Y998899D01*
X795247Y997612D01*
X797733Y996946D01*
X800307D01*
X802793Y997612D01*
X805021Y998899D01*
X806841Y1000719D01*
X808128Y1002947D01*
X808794Y1005433D01*
Y1008007D01*
X808128Y1010493D01*
X806841Y1012721D01*
X805021Y1014541D01*
X802793Y1015828D01*
X800307Y1016494D01*
D02*
G37*
G36*
X774907D02*
X772333D01*
X769847Y1015828D01*
X767619Y1014541D01*
X765799Y1012721D01*
X764512Y1010493D01*
X763846Y1008007D01*
Y1005433D01*
X764512Y1002947D01*
X765799Y1000719D01*
X767619Y998899D01*
X769847Y997612D01*
X772333Y996946D01*
X774907D01*
X777393Y997612D01*
X779621Y998899D01*
X781441Y1000719D01*
X782728Y1002947D01*
X783394Y1005433D01*
Y1008007D01*
X782728Y1010493D01*
X781441Y1012721D01*
X779621Y1014541D01*
X777393Y1015828D01*
X774907Y1016494D01*
D02*
G37*
G36*
X749507D02*
X746933D01*
X744447Y1015828D01*
X742219Y1014541D01*
X740399Y1012721D01*
X739112Y1010493D01*
X738446Y1008007D01*
Y1005433D01*
X739112Y1002947D01*
X740399Y1000719D01*
X742219Y998899D01*
X744447Y997612D01*
X746933Y996946D01*
X749507D01*
X751993Y997612D01*
X754221Y998899D01*
X756041Y1000719D01*
X757328Y1002947D01*
X757994Y1005433D01*
Y1008007D01*
X757328Y1010493D01*
X756041Y1012721D01*
X754221Y1014541D01*
X751993Y1015828D01*
X749507Y1016494D01*
D02*
G37*
G36*
X724107D02*
X721533D01*
X719047Y1015828D01*
X716819Y1014541D01*
X714999Y1012721D01*
X713712Y1010493D01*
X713046Y1008007D01*
Y1005433D01*
X713712Y1002947D01*
X714999Y1000719D01*
X716819Y998899D01*
X719047Y997612D01*
X721533Y996946D01*
X724107D01*
X726593Y997612D01*
X728821Y998899D01*
X730641Y1000719D01*
X731928Y1002947D01*
X732594Y1005433D01*
Y1008007D01*
X731928Y1010493D01*
X730641Y1012721D01*
X728821Y1014541D01*
X726593Y1015828D01*
X724107Y1016494D01*
D02*
G37*
G36*
X698707D02*
X696133D01*
X693647Y1015828D01*
X691419Y1014541D01*
X689599Y1012721D01*
X688312Y1010493D01*
X687646Y1008007D01*
Y1005433D01*
X688312Y1002947D01*
X689599Y1000719D01*
X691419Y998899D01*
X693647Y997612D01*
X696133Y996946D01*
X698707D01*
X701193Y997612D01*
X703421Y998899D01*
X705241Y1000719D01*
X706528Y1002947D01*
X707194Y1005433D01*
Y1008007D01*
X706528Y1010493D01*
X705241Y1012721D01*
X703421Y1014541D01*
X701193Y1015828D01*
X698707Y1016494D01*
D02*
G37*
G36*
X673307D02*
X670733D01*
X668247Y1015828D01*
X666019Y1014541D01*
X664199Y1012721D01*
X662912Y1010493D01*
X662246Y1008007D01*
Y1005433D01*
X662912Y1002947D01*
X664199Y1000719D01*
X666019Y998899D01*
X668247Y997612D01*
X670733Y996946D01*
X673307D01*
X675793Y997612D01*
X678021Y998899D01*
X679841Y1000719D01*
X681128Y1002947D01*
X681794Y1005433D01*
Y1008007D01*
X681128Y1010493D01*
X679841Y1012721D01*
X678021Y1014541D01*
X675793Y1015828D01*
X673307Y1016494D01*
D02*
G37*
G36*
X647907D02*
X645333D01*
X642847Y1015828D01*
X640619Y1014541D01*
X638799Y1012721D01*
X637512Y1010493D01*
X636846Y1008007D01*
Y1005433D01*
X637512Y1002947D01*
X638799Y1000719D01*
X640619Y998899D01*
X642847Y997612D01*
X645333Y996946D01*
X647907D01*
X650393Y997612D01*
X652621Y998899D01*
X654441Y1000719D01*
X655728Y1002947D01*
X656394Y1005433D01*
Y1008007D01*
X655728Y1010493D01*
X654441Y1012721D01*
X652621Y1014541D01*
X650393Y1015828D01*
X647907Y1016494D01*
D02*
G37*
G36*
X622507D02*
X619933D01*
X617447Y1015828D01*
X615219Y1014541D01*
X613399Y1012721D01*
X612112Y1010493D01*
X611446Y1008007D01*
Y1005433D01*
X612112Y1002947D01*
X613399Y1000719D01*
X615219Y998899D01*
X617447Y997612D01*
X619933Y996946D01*
X622507D01*
X624993Y997612D01*
X627221Y998899D01*
X629041Y1000719D01*
X630328Y1002947D01*
X630994Y1005433D01*
Y1008007D01*
X630328Y1010493D01*
X629041Y1012721D01*
X627221Y1014541D01*
X624993Y1015828D01*
X622507Y1016494D01*
D02*
G37*
G36*
X597107D02*
X594533D01*
X592047Y1015828D01*
X589819Y1014541D01*
X587999Y1012721D01*
X586712Y1010493D01*
X586046Y1008007D01*
Y1005433D01*
X586712Y1002947D01*
X587999Y1000719D01*
X589819Y998899D01*
X592047Y997612D01*
X594533Y996946D01*
X597107D01*
X599593Y997612D01*
X601821Y998899D01*
X603641Y1000719D01*
X604928Y1002947D01*
X605594Y1005433D01*
Y1008007D01*
X604928Y1010493D01*
X603641Y1012721D01*
X601821Y1014541D01*
X599593Y1015828D01*
X597107Y1016494D01*
D02*
G37*
G36*
X571707D02*
X569133D01*
X566647Y1015828D01*
X564419Y1014541D01*
X562599Y1012721D01*
X561312Y1010493D01*
X560646Y1008007D01*
Y1005433D01*
X561312Y1002947D01*
X562599Y1000719D01*
X564419Y998899D01*
X566647Y997612D01*
X569133Y996946D01*
X571707D01*
X574193Y997612D01*
X576421Y998899D01*
X578241Y1000719D01*
X579528Y1002947D01*
X580194Y1005433D01*
Y1008007D01*
X579528Y1010493D01*
X578241Y1012721D01*
X576421Y1014541D01*
X574193Y1015828D01*
X571707Y1016494D01*
D02*
G37*
G36*
X546307D02*
X543733D01*
X541247Y1015828D01*
X539019Y1014541D01*
X537199Y1012721D01*
X535912Y1010493D01*
X535246Y1008007D01*
Y1005433D01*
X535912Y1002947D01*
X537199Y1000719D01*
X539019Y998899D01*
X541247Y997612D01*
X543733Y996946D01*
X546307D01*
X548793Y997612D01*
X551021Y998899D01*
X552841Y1000719D01*
X554128Y1002947D01*
X554794Y1005433D01*
Y1008007D01*
X554128Y1010493D01*
X552841Y1012721D01*
X551021Y1014541D01*
X548793Y1015828D01*
X546307Y1016494D01*
D02*
G37*
G36*
X520907D02*
X518333D01*
X515847Y1015828D01*
X513619Y1014541D01*
X511799Y1012721D01*
X510512Y1010493D01*
X509846Y1008007D01*
Y1005433D01*
X510512Y1002947D01*
X511799Y1000719D01*
X513619Y998899D01*
X515847Y997612D01*
X518333Y996946D01*
X520907D01*
X523393Y997612D01*
X525621Y998899D01*
X527441Y1000719D01*
X528728Y1002947D01*
X529394Y1005433D01*
Y1008007D01*
X528728Y1010493D01*
X527441Y1012721D01*
X525621Y1014541D01*
X523393Y1015828D01*
X520907Y1016494D01*
D02*
G37*
G36*
X495507D02*
X492933D01*
X490447Y1015828D01*
X488219Y1014541D01*
X486399Y1012721D01*
X485112Y1010493D01*
X484446Y1008007D01*
Y1005433D01*
X485112Y1002947D01*
X486399Y1000719D01*
X488219Y998899D01*
X490447Y997612D01*
X492933Y996946D01*
X495507D01*
X497993Y997612D01*
X500221Y998899D01*
X502041Y1000719D01*
X503328Y1002947D01*
X503994Y1005433D01*
Y1008007D01*
X503328Y1010493D01*
X502041Y1012721D01*
X500221Y1014541D01*
X497993Y1015828D01*
X495507Y1016494D01*
D02*
G37*
G36*
X470107D02*
X467533D01*
X465047Y1015828D01*
X462819Y1014541D01*
X460999Y1012721D01*
X459712Y1010493D01*
X459046Y1008007D01*
Y1005433D01*
X459712Y1002947D01*
X460999Y1000719D01*
X462819Y998899D01*
X465047Y997612D01*
X467533Y996946D01*
X470107D01*
X472593Y997612D01*
X474821Y998899D01*
X476641Y1000719D01*
X477928Y1002947D01*
X478594Y1005433D01*
Y1008007D01*
X477928Y1010493D01*
X476641Y1012721D01*
X474821Y1014541D01*
X472593Y1015828D01*
X470107Y1016494D01*
D02*
G37*
G36*
X444707D02*
X442133D01*
X439647Y1015828D01*
X437419Y1014541D01*
X435599Y1012721D01*
X434312Y1010493D01*
X433646Y1008007D01*
Y1005433D01*
X434312Y1002947D01*
X435599Y1000719D01*
X437419Y998899D01*
X439647Y997612D01*
X442133Y996946D01*
X444707D01*
X447193Y997612D01*
X449421Y998899D01*
X451241Y1000719D01*
X452528Y1002947D01*
X453194Y1005433D01*
Y1008007D01*
X452528Y1010493D01*
X451241Y1012721D01*
X449421Y1014541D01*
X447193Y1015828D01*
X444707Y1016494D01*
D02*
G37*
G36*
X419307D02*
X416733D01*
X414247Y1015828D01*
X412019Y1014541D01*
X410199Y1012721D01*
X408912Y1010493D01*
X408246Y1008007D01*
Y1005433D01*
X408912Y1002947D01*
X410199Y1000719D01*
X412019Y998899D01*
X414247Y997612D01*
X416733Y996946D01*
X419307D01*
X421793Y997612D01*
X424021Y998899D01*
X425841Y1000719D01*
X427128Y1002947D01*
X427794Y1005433D01*
Y1008007D01*
X427128Y1010493D01*
X425841Y1012721D01*
X424021Y1014541D01*
X421793Y1015828D01*
X419307Y1016494D01*
D02*
G37*
G36*
X393907D02*
X391333D01*
X388847Y1015828D01*
X386619Y1014541D01*
X384799Y1012721D01*
X383512Y1010493D01*
X382846Y1008007D01*
Y1005433D01*
X383512Y1002947D01*
X384799Y1000719D01*
X386619Y998899D01*
X388847Y997612D01*
X391333Y996946D01*
X393907D01*
X396393Y997612D01*
X398621Y998899D01*
X400441Y1000719D01*
X401728Y1002947D01*
X402394Y1005433D01*
Y1008007D01*
X401728Y1010493D01*
X400441Y1012721D01*
X398621Y1014541D01*
X396393Y1015828D01*
X393907Y1016494D01*
D02*
G37*
G36*
X368507D02*
X365933D01*
X363447Y1015828D01*
X361219Y1014541D01*
X359399Y1012721D01*
X358112Y1010493D01*
X357446Y1008007D01*
Y1005433D01*
X358112Y1002947D01*
X359399Y1000719D01*
X361219Y998899D01*
X363447Y997612D01*
X365933Y996946D01*
X368507D01*
X370993Y997612D01*
X373221Y998899D01*
X375041Y1000719D01*
X376328Y1002947D01*
X376994Y1005433D01*
Y1008007D01*
X376328Y1010493D01*
X375041Y1012721D01*
X373221Y1014541D01*
X370993Y1015828D01*
X368507Y1016494D01*
D02*
G37*
G36*
X343107D02*
X340533D01*
X338047Y1015828D01*
X335819Y1014541D01*
X333999Y1012721D01*
X332712Y1010493D01*
X332046Y1008007D01*
Y1005433D01*
X332712Y1002947D01*
X333999Y1000719D01*
X335819Y998899D01*
X338047Y997612D01*
X340533Y996946D01*
X343107D01*
X345593Y997612D01*
X347821Y998899D01*
X349641Y1000719D01*
X350928Y1002947D01*
X351594Y1005433D01*
Y1008007D01*
X350928Y1010493D01*
X349641Y1012721D01*
X347821Y1014541D01*
X345593Y1015828D01*
X343107Y1016494D01*
D02*
G37*
G36*
X317707D02*
X315133D01*
X312647Y1015828D01*
X310419Y1014541D01*
X308599Y1012721D01*
X307312Y1010493D01*
X306646Y1008007D01*
Y1005433D01*
X307312Y1002947D01*
X308599Y1000719D01*
X310419Y998899D01*
X312647Y997612D01*
X315133Y996946D01*
X317707D01*
X320193Y997612D01*
X322421Y998899D01*
X324241Y1000719D01*
X325528Y1002947D01*
X326194Y1005433D01*
Y1008007D01*
X325528Y1010493D01*
X324241Y1012721D01*
X322421Y1014541D01*
X320193Y1015828D01*
X317707Y1016494D01*
D02*
G37*
G36*
X292307D02*
X289733D01*
X287247Y1015828D01*
X285019Y1014541D01*
X283199Y1012721D01*
X281912Y1010493D01*
X281246Y1008007D01*
Y1005433D01*
X281912Y1002947D01*
X283199Y1000719D01*
X285019Y998899D01*
X287247Y997612D01*
X289733Y996946D01*
X292307D01*
X294793Y997612D01*
X297021Y998899D01*
X298841Y1000719D01*
X300128Y1002947D01*
X300794Y1005433D01*
Y1008007D01*
X300128Y1010493D01*
X298841Y1012721D01*
X297021Y1014541D01*
X294793Y1015828D01*
X292307Y1016494D01*
D02*
G37*
G36*
X266907D02*
X264333D01*
X261847Y1015828D01*
X259619Y1014541D01*
X257799Y1012721D01*
X256512Y1010493D01*
X255846Y1008007D01*
Y1005433D01*
X256512Y1002947D01*
X257799Y1000719D01*
X259619Y998899D01*
X261847Y997612D01*
X264333Y996946D01*
X266907D01*
X269393Y997612D01*
X271621Y998899D01*
X273441Y1000719D01*
X274728Y1002947D01*
X275394Y1005433D01*
Y1008007D01*
X274728Y1010493D01*
X273441Y1012721D01*
X271621Y1014541D01*
X269393Y1015828D01*
X266907Y1016494D01*
D02*
G37*
G36*
X241507D02*
X238933D01*
X236447Y1015828D01*
X234219Y1014541D01*
X232399Y1012721D01*
X231112Y1010493D01*
X230446Y1008007D01*
Y1005433D01*
X231112Y1002947D01*
X232399Y1000719D01*
X234219Y998899D01*
X236447Y997612D01*
X238933Y996946D01*
X241507D01*
X243993Y997612D01*
X246221Y998899D01*
X248041Y1000719D01*
X249328Y1002947D01*
X249994Y1005433D01*
Y1008007D01*
X249328Y1010493D01*
X248041Y1012721D01*
X246221Y1014541D01*
X243993Y1015828D01*
X241507Y1016494D01*
D02*
G37*
G36*
X958370Y1005260D02*
X927100D01*
Y973990D01*
X928391D01*
X933450Y974791D01*
X938321Y976374D01*
X942885Y978699D01*
X947028Y981710D01*
X950650Y985332D01*
X953661Y989475D01*
X955986Y994039D01*
X957569Y998910D01*
X958370Y1003969D01*
Y1005260D01*
D02*
G37*
G36*
X924560D02*
X893290D01*
Y1003969D01*
X894091Y998910D01*
X895674Y994039D01*
X897999Y989475D01*
X901010Y985332D01*
X904632Y981710D01*
X908775Y978699D01*
X913339Y976374D01*
X918210Y974791D01*
X923269Y973990D01*
X924560D01*
Y1005260D01*
D02*
G37*
G36*
X221770Y1005260D02*
X190500D01*
Y973990D01*
X191791D01*
X196850Y974791D01*
X201721Y976374D01*
X206285Y978699D01*
X210428Y981710D01*
X214050Y985332D01*
X217061Y989475D01*
X219386Y994039D01*
X220969Y998910D01*
X221770Y1003969D01*
Y1005260D01*
D02*
G37*
G36*
X187960D02*
X156690D01*
Y1003969D01*
X157491Y998910D01*
X159074Y994039D01*
X161399Y989475D01*
X164410Y985332D01*
X168032Y981710D01*
X172175Y978699D01*
X176739Y976374D01*
X181610Y974791D01*
X186669Y973990D01*
X187960D01*
Y1005260D01*
D02*
G37*
G36*
X851107Y991094D02*
X848533D01*
X846047Y990428D01*
X843819Y989141D01*
X841999Y987321D01*
X840712Y985093D01*
X840046Y982607D01*
Y980033D01*
X840712Y977547D01*
X841999Y975319D01*
X843819Y973499D01*
X846047Y972212D01*
X848533Y971546D01*
X851107D01*
X853593Y972212D01*
X855821Y973499D01*
X857641Y975319D01*
X858928Y977547D01*
X859594Y980033D01*
Y982607D01*
X858928Y985093D01*
X857641Y987321D01*
X855821Y989141D01*
X853593Y990428D01*
X851107Y991094D01*
D02*
G37*
G36*
X825707D02*
X823133D01*
X820647Y990428D01*
X818419Y989141D01*
X816599Y987321D01*
X815312Y985093D01*
X814646Y982607D01*
Y980033D01*
X815312Y977547D01*
X816599Y975319D01*
X818419Y973499D01*
X820647Y972212D01*
X823133Y971546D01*
X825707D01*
X828193Y972212D01*
X830421Y973499D01*
X832241Y975319D01*
X833528Y977547D01*
X834194Y980033D01*
Y982607D01*
X833528Y985093D01*
X832241Y987321D01*
X830421Y989141D01*
X828193Y990428D01*
X825707Y991094D01*
D02*
G37*
G36*
X800307D02*
X797733D01*
X795247Y990428D01*
X793019Y989141D01*
X791199Y987321D01*
X789912Y985093D01*
X789246Y982607D01*
Y980033D01*
X789912Y977547D01*
X791199Y975319D01*
X793019Y973499D01*
X795247Y972212D01*
X797733Y971546D01*
X800307D01*
X802793Y972212D01*
X805021Y973499D01*
X806841Y975319D01*
X808128Y977547D01*
X808794Y980033D01*
Y982607D01*
X808128Y985093D01*
X806841Y987321D01*
X805021Y989141D01*
X802793Y990428D01*
X800307Y991094D01*
D02*
G37*
G36*
X774907D02*
X772333D01*
X769847Y990428D01*
X767619Y989141D01*
X765799Y987321D01*
X764512Y985093D01*
X763846Y982607D01*
Y980033D01*
X764512Y977547D01*
X765799Y975319D01*
X767619Y973499D01*
X769847Y972212D01*
X772333Y971546D01*
X774907D01*
X777393Y972212D01*
X779621Y973499D01*
X781441Y975319D01*
X782728Y977547D01*
X783394Y980033D01*
Y982607D01*
X782728Y985093D01*
X781441Y987321D01*
X779621Y989141D01*
X777393Y990428D01*
X774907Y991094D01*
D02*
G37*
G36*
X749507D02*
X746933D01*
X744447Y990428D01*
X742219Y989141D01*
X740399Y987321D01*
X739112Y985093D01*
X738446Y982607D01*
Y980033D01*
X739112Y977547D01*
X740399Y975319D01*
X742219Y973499D01*
X744447Y972212D01*
X746933Y971546D01*
X749507D01*
X751993Y972212D01*
X754221Y973499D01*
X756041Y975319D01*
X757328Y977547D01*
X757994Y980033D01*
Y982607D01*
X757328Y985093D01*
X756041Y987321D01*
X754221Y989141D01*
X751993Y990428D01*
X749507Y991094D01*
D02*
G37*
G36*
X724107D02*
X721533D01*
X719047Y990428D01*
X716819Y989141D01*
X714999Y987321D01*
X713712Y985093D01*
X713046Y982607D01*
Y980033D01*
X713712Y977547D01*
X714999Y975319D01*
X716819Y973499D01*
X719047Y972212D01*
X721533Y971546D01*
X724107D01*
X726593Y972212D01*
X728821Y973499D01*
X730641Y975319D01*
X731928Y977547D01*
X732594Y980033D01*
Y982607D01*
X731928Y985093D01*
X730641Y987321D01*
X728821Y989141D01*
X726593Y990428D01*
X724107Y991094D01*
D02*
G37*
G36*
X698707D02*
X696133D01*
X693647Y990428D01*
X691419Y989141D01*
X689599Y987321D01*
X688312Y985093D01*
X687646Y982607D01*
Y980033D01*
X688312Y977547D01*
X689599Y975319D01*
X691419Y973499D01*
X693647Y972212D01*
X696133Y971546D01*
X698707D01*
X701193Y972212D01*
X703421Y973499D01*
X705241Y975319D01*
X706528Y977547D01*
X707194Y980033D01*
Y982607D01*
X706528Y985093D01*
X705241Y987321D01*
X703421Y989141D01*
X701193Y990428D01*
X698707Y991094D01*
D02*
G37*
G36*
X673307D02*
X670733D01*
X668247Y990428D01*
X666019Y989141D01*
X664199Y987321D01*
X662912Y985093D01*
X662246Y982607D01*
Y980033D01*
X662912Y977547D01*
X664199Y975319D01*
X666019Y973499D01*
X668247Y972212D01*
X670733Y971546D01*
X673307D01*
X675793Y972212D01*
X678021Y973499D01*
X679841Y975319D01*
X681128Y977547D01*
X681794Y980033D01*
Y982607D01*
X681128Y985093D01*
X679841Y987321D01*
X678021Y989141D01*
X675793Y990428D01*
X673307Y991094D01*
D02*
G37*
G36*
X647907D02*
X645333D01*
X642847Y990428D01*
X640619Y989141D01*
X638799Y987321D01*
X637512Y985093D01*
X636846Y982607D01*
Y980033D01*
X637512Y977547D01*
X638799Y975319D01*
X640619Y973499D01*
X642847Y972212D01*
X645333Y971546D01*
X647907D01*
X650393Y972212D01*
X652621Y973499D01*
X654441Y975319D01*
X655728Y977547D01*
X656394Y980033D01*
Y982607D01*
X655728Y985093D01*
X654441Y987321D01*
X652621Y989141D01*
X650393Y990428D01*
X647907Y991094D01*
D02*
G37*
G36*
X622507D02*
X619933D01*
X617447Y990428D01*
X615219Y989141D01*
X613399Y987321D01*
X612112Y985093D01*
X611446Y982607D01*
Y980033D01*
X612112Y977547D01*
X613399Y975319D01*
X615219Y973499D01*
X617447Y972212D01*
X619933Y971546D01*
X622507D01*
X624993Y972212D01*
X627221Y973499D01*
X629041Y975319D01*
X630328Y977547D01*
X630994Y980033D01*
Y982607D01*
X630328Y985093D01*
X629041Y987321D01*
X627221Y989141D01*
X624993Y990428D01*
X622507Y991094D01*
D02*
G37*
G36*
X597107D02*
X594533D01*
X592047Y990428D01*
X589819Y989141D01*
X587999Y987321D01*
X586712Y985093D01*
X586046Y982607D01*
Y980033D01*
X586712Y977547D01*
X587999Y975319D01*
X589819Y973499D01*
X592047Y972212D01*
X594533Y971546D01*
X597107D01*
X599593Y972212D01*
X601821Y973499D01*
X603641Y975319D01*
X604928Y977547D01*
X605594Y980033D01*
Y982607D01*
X604928Y985093D01*
X603641Y987321D01*
X601821Y989141D01*
X599593Y990428D01*
X597107Y991094D01*
D02*
G37*
G36*
X571707D02*
X569133D01*
X566647Y990428D01*
X564419Y989141D01*
X562599Y987321D01*
X561312Y985093D01*
X560646Y982607D01*
Y980033D01*
X561312Y977547D01*
X562599Y975319D01*
X564419Y973499D01*
X566647Y972212D01*
X569133Y971546D01*
X571707D01*
X574193Y972212D01*
X576421Y973499D01*
X578241Y975319D01*
X579528Y977547D01*
X580194Y980033D01*
Y982607D01*
X579528Y985093D01*
X578241Y987321D01*
X576421Y989141D01*
X574193Y990428D01*
X571707Y991094D01*
D02*
G37*
G36*
X546307D02*
X543733D01*
X541247Y990428D01*
X539019Y989141D01*
X537199Y987321D01*
X535912Y985093D01*
X535246Y982607D01*
Y980033D01*
X535912Y977547D01*
X537199Y975319D01*
X539019Y973499D01*
X541247Y972212D01*
X543733Y971546D01*
X546307D01*
X548793Y972212D01*
X551021Y973499D01*
X552841Y975319D01*
X554128Y977547D01*
X554794Y980033D01*
Y982607D01*
X554128Y985093D01*
X552841Y987321D01*
X551021Y989141D01*
X548793Y990428D01*
X546307Y991094D01*
D02*
G37*
G36*
X520907D02*
X518333D01*
X515847Y990428D01*
X513619Y989141D01*
X511799Y987321D01*
X510512Y985093D01*
X509846Y982607D01*
Y980033D01*
X510512Y977547D01*
X511799Y975319D01*
X513619Y973499D01*
X515847Y972212D01*
X518333Y971546D01*
X520907D01*
X523393Y972212D01*
X525621Y973499D01*
X527441Y975319D01*
X528728Y977547D01*
X529394Y980033D01*
Y982607D01*
X528728Y985093D01*
X527441Y987321D01*
X525621Y989141D01*
X523393Y990428D01*
X520907Y991094D01*
D02*
G37*
G36*
X495507D02*
X492933D01*
X490447Y990428D01*
X488219Y989141D01*
X486399Y987321D01*
X485112Y985093D01*
X484446Y982607D01*
Y980033D01*
X485112Y977547D01*
X486399Y975319D01*
X488219Y973499D01*
X490447Y972212D01*
X492933Y971546D01*
X495507D01*
X497993Y972212D01*
X500221Y973499D01*
X502041Y975319D01*
X503328Y977547D01*
X503994Y980033D01*
Y982607D01*
X503328Y985093D01*
X502041Y987321D01*
X500221Y989141D01*
X497993Y990428D01*
X495507Y991094D01*
D02*
G37*
G36*
X470107D02*
X467533D01*
X465047Y990428D01*
X462819Y989141D01*
X460999Y987321D01*
X459712Y985093D01*
X459046Y982607D01*
Y980033D01*
X459712Y977547D01*
X460999Y975319D01*
X462819Y973499D01*
X465047Y972212D01*
X467533Y971546D01*
X470107D01*
X472593Y972212D01*
X474821Y973499D01*
X476641Y975319D01*
X477928Y977547D01*
X478594Y980033D01*
Y982607D01*
X477928Y985093D01*
X476641Y987321D01*
X474821Y989141D01*
X472593Y990428D01*
X470107Y991094D01*
D02*
G37*
G36*
X444707D02*
X442133D01*
X439647Y990428D01*
X437419Y989141D01*
X435599Y987321D01*
X434312Y985093D01*
X433646Y982607D01*
Y980033D01*
X434312Y977547D01*
X435599Y975319D01*
X437419Y973499D01*
X439647Y972212D01*
X442133Y971546D01*
X444707D01*
X447193Y972212D01*
X449421Y973499D01*
X451241Y975319D01*
X452528Y977547D01*
X453194Y980033D01*
Y982607D01*
X452528Y985093D01*
X451241Y987321D01*
X449421Y989141D01*
X447193Y990428D01*
X444707Y991094D01*
D02*
G37*
G36*
X419307D02*
X416733D01*
X414247Y990428D01*
X412019Y989141D01*
X410199Y987321D01*
X408912Y985093D01*
X408246Y982607D01*
Y980033D01*
X408912Y977547D01*
X410199Y975319D01*
X412019Y973499D01*
X414247Y972212D01*
X416733Y971546D01*
X419307D01*
X421793Y972212D01*
X424021Y973499D01*
X425841Y975319D01*
X427128Y977547D01*
X427794Y980033D01*
Y982607D01*
X427128Y985093D01*
X425841Y987321D01*
X424021Y989141D01*
X421793Y990428D01*
X419307Y991094D01*
D02*
G37*
G36*
X393907D02*
X391333D01*
X388847Y990428D01*
X386619Y989141D01*
X384799Y987321D01*
X383512Y985093D01*
X382846Y982607D01*
Y980033D01*
X383512Y977547D01*
X384799Y975319D01*
X386619Y973499D01*
X388847Y972212D01*
X391333Y971546D01*
X393907D01*
X396393Y972212D01*
X398621Y973499D01*
X400441Y975319D01*
X401728Y977547D01*
X402394Y980033D01*
Y982607D01*
X401728Y985093D01*
X400441Y987321D01*
X398621Y989141D01*
X396393Y990428D01*
X393907Y991094D01*
D02*
G37*
G36*
X368507D02*
X365933D01*
X363447Y990428D01*
X361219Y989141D01*
X359399Y987321D01*
X358112Y985093D01*
X357446Y982607D01*
Y980033D01*
X358112Y977547D01*
X359399Y975319D01*
X361219Y973499D01*
X363447Y972212D01*
X365933Y971546D01*
X368507D01*
X370993Y972212D01*
X373221Y973499D01*
X375041Y975319D01*
X376328Y977547D01*
X376994Y980033D01*
Y982607D01*
X376328Y985093D01*
X375041Y987321D01*
X373221Y989141D01*
X370993Y990428D01*
X368507Y991094D01*
D02*
G37*
G36*
X343107D02*
X340533D01*
X338047Y990428D01*
X335819Y989141D01*
X333999Y987321D01*
X332712Y985093D01*
X332046Y982607D01*
Y980033D01*
X332712Y977547D01*
X333999Y975319D01*
X335819Y973499D01*
X338047Y972212D01*
X340533Y971546D01*
X343107D01*
X345593Y972212D01*
X347821Y973499D01*
X349641Y975319D01*
X350928Y977547D01*
X351594Y980033D01*
Y982607D01*
X350928Y985093D01*
X349641Y987321D01*
X347821Y989141D01*
X345593Y990428D01*
X343107Y991094D01*
D02*
G37*
G36*
X317707D02*
X315133D01*
X312647Y990428D01*
X310419Y989141D01*
X308599Y987321D01*
X307312Y985093D01*
X306646Y982607D01*
Y980033D01*
X307312Y977547D01*
X308599Y975319D01*
X310419Y973499D01*
X312647Y972212D01*
X315133Y971546D01*
X317707D01*
X320193Y972212D01*
X322421Y973499D01*
X324241Y975319D01*
X325528Y977547D01*
X326194Y980033D01*
Y982607D01*
X325528Y985093D01*
X324241Y987321D01*
X322421Y989141D01*
X320193Y990428D01*
X317707Y991094D01*
D02*
G37*
G36*
X292307D02*
X289733D01*
X287247Y990428D01*
X285019Y989141D01*
X283199Y987321D01*
X281912Y985093D01*
X281246Y982607D01*
Y980033D01*
X281912Y977547D01*
X283199Y975319D01*
X285019Y973499D01*
X287247Y972212D01*
X289733Y971546D01*
X292307D01*
X294793Y972212D01*
X297021Y973499D01*
X298841Y975319D01*
X300128Y977547D01*
X300794Y980033D01*
Y982607D01*
X300128Y985093D01*
X298841Y987321D01*
X297021Y989141D01*
X294793Y990428D01*
X292307Y991094D01*
D02*
G37*
G36*
X266907D02*
X264333D01*
X261847Y990428D01*
X259619Y989141D01*
X257799Y987321D01*
X256512Y985093D01*
X255846Y982607D01*
Y980033D01*
X256512Y977547D01*
X257799Y975319D01*
X259619Y973499D01*
X261847Y972212D01*
X264333Y971546D01*
X266907D01*
X269393Y972212D01*
X271621Y973499D01*
X273441Y975319D01*
X274728Y977547D01*
X275394Y980033D01*
Y982607D01*
X274728Y985093D01*
X273441Y987321D01*
X271621Y989141D01*
X269393Y990428D01*
X266907Y991094D01*
D02*
G37*
G36*
X241507D02*
X238933D01*
X236447Y990428D01*
X234219Y989141D01*
X232399Y987321D01*
X231112Y985093D01*
X230446Y982607D01*
Y980033D01*
X231112Y977547D01*
X232399Y975319D01*
X234219Y973499D01*
X236447Y972212D01*
X238933Y971546D01*
X241507D01*
X243993Y972212D01*
X246221Y973499D01*
X248041Y975319D01*
X249328Y977547D01*
X249994Y980033D01*
Y982607D01*
X249328Y985093D01*
X248041Y987321D01*
X246221Y989141D01*
X243993Y990428D01*
X241507Y991094D01*
D02*
G37*
G36*
X622640Y966720D02*
X622490D01*
Y957200D01*
X632010D01*
Y957350D01*
X631275Y960095D01*
X629854Y962555D01*
X627845Y964564D01*
X625385Y965985D01*
X622640Y966720D01*
D02*
G37*
G36*
X619950D02*
X619799D01*
X617055Y965985D01*
X614595Y964564D01*
X612586Y962555D01*
X611165Y960095D01*
X610430Y957350D01*
Y957200D01*
X619950D01*
Y966720D01*
D02*
G37*
G36*
X597240D02*
X597090D01*
Y957200D01*
X606610D01*
Y957350D01*
X605875Y960095D01*
X604454Y962555D01*
X602445Y964564D01*
X599985Y965985D01*
X597240Y966720D01*
D02*
G37*
G36*
X594550D02*
X594399D01*
X591655Y965985D01*
X589195Y964564D01*
X587186Y962555D01*
X585765Y960095D01*
X585030Y957350D01*
Y957200D01*
X594550D01*
Y966720D01*
D02*
G37*
G36*
X851107Y965704D02*
X848533D01*
X846047Y965038D01*
X843819Y963751D01*
X841999Y961931D01*
X840712Y959703D01*
X840046Y957217D01*
Y954643D01*
X840712Y952157D01*
X841999Y949929D01*
X843819Y948109D01*
X846047Y946822D01*
X848533Y946156D01*
X851107D01*
X853593Y946822D01*
X855821Y948109D01*
X857641Y949929D01*
X858928Y952157D01*
X859594Y954643D01*
Y957217D01*
X858928Y959703D01*
X857641Y961931D01*
X855821Y963751D01*
X853593Y965038D01*
X851107Y965704D01*
D02*
G37*
G36*
X825707D02*
X823133D01*
X820647Y965038D01*
X818419Y963751D01*
X816599Y961931D01*
X815312Y959703D01*
X814646Y957217D01*
Y954643D01*
X815312Y952157D01*
X816599Y949929D01*
X818419Y948109D01*
X820647Y946822D01*
X823133Y946156D01*
X825707D01*
X828193Y946822D01*
X830421Y948109D01*
X832241Y949929D01*
X833528Y952157D01*
X834194Y954643D01*
Y957217D01*
X833528Y959703D01*
X832241Y961931D01*
X830421Y963751D01*
X828193Y965038D01*
X825707Y965704D01*
D02*
G37*
G36*
X800307D02*
X797733D01*
X795247Y965038D01*
X793019Y963751D01*
X791199Y961931D01*
X789912Y959703D01*
X789246Y957217D01*
Y954643D01*
X789912Y952157D01*
X791199Y949929D01*
X793019Y948109D01*
X795247Y946822D01*
X797733Y946156D01*
X800307D01*
X802793Y946822D01*
X805021Y948109D01*
X806841Y949929D01*
X808128Y952157D01*
X808794Y954643D01*
Y957217D01*
X808128Y959703D01*
X806841Y961931D01*
X805021Y963751D01*
X802793Y965038D01*
X800307Y965704D01*
D02*
G37*
G36*
X774907D02*
X772333D01*
X769847Y965038D01*
X767619Y963751D01*
X765799Y961931D01*
X764512Y959703D01*
X763846Y957217D01*
Y954643D01*
X764512Y952157D01*
X765799Y949929D01*
X767619Y948109D01*
X769847Y946822D01*
X772333Y946156D01*
X774907D01*
X777393Y946822D01*
X779621Y948109D01*
X781441Y949929D01*
X782728Y952157D01*
X783394Y954643D01*
Y957217D01*
X782728Y959703D01*
X781441Y961931D01*
X779621Y963751D01*
X777393Y965038D01*
X774907Y965704D01*
D02*
G37*
G36*
X749507D02*
X746933D01*
X744447Y965038D01*
X742219Y963751D01*
X740399Y961931D01*
X739112Y959703D01*
X738446Y957217D01*
Y954643D01*
X739112Y952157D01*
X740399Y949929D01*
X742219Y948109D01*
X744447Y946822D01*
X746933Y946156D01*
X749507D01*
X751993Y946822D01*
X754221Y948109D01*
X756041Y949929D01*
X757328Y952157D01*
X757994Y954643D01*
Y957217D01*
X757328Y959703D01*
X756041Y961931D01*
X754221Y963751D01*
X751993Y965038D01*
X749507Y965704D01*
D02*
G37*
G36*
X724107D02*
X721533D01*
X719047Y965038D01*
X716819Y963751D01*
X714999Y961931D01*
X713712Y959703D01*
X713046Y957217D01*
Y954643D01*
X713712Y952157D01*
X714999Y949929D01*
X716819Y948109D01*
X719047Y946822D01*
X721533Y946156D01*
X724107D01*
X726593Y946822D01*
X728821Y948109D01*
X730641Y949929D01*
X731928Y952157D01*
X732594Y954643D01*
Y957217D01*
X731928Y959703D01*
X730641Y961931D01*
X728821Y963751D01*
X726593Y965038D01*
X724107Y965704D01*
D02*
G37*
G36*
X698707D02*
X696133D01*
X693647Y965038D01*
X691419Y963751D01*
X689599Y961931D01*
X688312Y959703D01*
X687646Y957217D01*
Y954643D01*
X688312Y952157D01*
X689599Y949929D01*
X691419Y948109D01*
X693647Y946822D01*
X696133Y946156D01*
X698707D01*
X701193Y946822D01*
X703421Y948109D01*
X705241Y949929D01*
X706528Y952157D01*
X707194Y954643D01*
Y957217D01*
X706528Y959703D01*
X705241Y961931D01*
X703421Y963751D01*
X701193Y965038D01*
X698707Y965704D01*
D02*
G37*
G36*
X673307D02*
X670733D01*
X668247Y965038D01*
X666019Y963751D01*
X664199Y961931D01*
X662912Y959703D01*
X662246Y957217D01*
Y954643D01*
X662912Y952157D01*
X664199Y949929D01*
X666019Y948109D01*
X668247Y946822D01*
X670733Y946156D01*
X673307D01*
X675793Y946822D01*
X678021Y948109D01*
X679841Y949929D01*
X681128Y952157D01*
X681794Y954643D01*
Y957217D01*
X681128Y959703D01*
X679841Y961931D01*
X678021Y963751D01*
X675793Y965038D01*
X673307Y965704D01*
D02*
G37*
G36*
X647907D02*
X645333D01*
X642847Y965038D01*
X640619Y963751D01*
X638799Y961931D01*
X637512Y959703D01*
X636846Y957217D01*
Y954643D01*
X637512Y952157D01*
X638799Y949929D01*
X640619Y948109D01*
X642847Y946822D01*
X645333Y946156D01*
X647907D01*
X650393Y946822D01*
X652621Y948109D01*
X654441Y949929D01*
X655728Y952157D01*
X656394Y954643D01*
Y957217D01*
X655728Y959703D01*
X654441Y961931D01*
X652621Y963751D01*
X650393Y965038D01*
X647907Y965704D01*
D02*
G37*
G36*
X571707D02*
X569133D01*
X566647Y965038D01*
X564419Y963751D01*
X562599Y961931D01*
X561312Y959703D01*
X560646Y957217D01*
Y954643D01*
X561312Y952157D01*
X562599Y949929D01*
X564419Y948109D01*
X566647Y946822D01*
X569133Y946156D01*
X571707D01*
X574193Y946822D01*
X576421Y948109D01*
X578241Y949929D01*
X579528Y952157D01*
X580194Y954643D01*
Y957217D01*
X579528Y959703D01*
X578241Y961931D01*
X576421Y963751D01*
X574193Y965038D01*
X571707Y965704D01*
D02*
G37*
G36*
X520907D02*
X518333D01*
X515847Y965038D01*
X513619Y963751D01*
X511799Y961931D01*
X510512Y959703D01*
X509846Y957217D01*
Y954643D01*
X510512Y952157D01*
X511799Y949929D01*
X513619Y948109D01*
X515847Y946822D01*
X518333Y946156D01*
X520907D01*
X523393Y946822D01*
X525621Y948109D01*
X527441Y949929D01*
X528728Y952157D01*
X529394Y954643D01*
Y957217D01*
X528728Y959703D01*
X527441Y961931D01*
X525621Y963751D01*
X523393Y965038D01*
X520907Y965704D01*
D02*
G37*
G36*
X495507D02*
X492933D01*
X490447Y965038D01*
X488219Y963751D01*
X486399Y961931D01*
X485112Y959703D01*
X484446Y957217D01*
Y954643D01*
X485112Y952157D01*
X486399Y949929D01*
X488219Y948109D01*
X490447Y946822D01*
X492933Y946156D01*
X495507D01*
X497993Y946822D01*
X500221Y948109D01*
X502041Y949929D01*
X503328Y952157D01*
X503994Y954643D01*
Y957217D01*
X503328Y959703D01*
X502041Y961931D01*
X500221Y963751D01*
X497993Y965038D01*
X495507Y965704D01*
D02*
G37*
G36*
X470107D02*
X467533D01*
X465047Y965038D01*
X462819Y963751D01*
X460999Y961931D01*
X459712Y959703D01*
X459046Y957217D01*
Y954643D01*
X459712Y952157D01*
X460999Y949929D01*
X462819Y948109D01*
X465047Y946822D01*
X467533Y946156D01*
X470107D01*
X472593Y946822D01*
X474821Y948109D01*
X476641Y949929D01*
X477928Y952157D01*
X478594Y954643D01*
Y957217D01*
X477928Y959703D01*
X476641Y961931D01*
X474821Y963751D01*
X472593Y965038D01*
X470107Y965704D01*
D02*
G37*
G36*
X444707D02*
X442133D01*
X439647Y965038D01*
X437419Y963751D01*
X435599Y961931D01*
X434312Y959703D01*
X433646Y957217D01*
Y954643D01*
X434312Y952157D01*
X435599Y949929D01*
X437419Y948109D01*
X439647Y946822D01*
X442133Y946156D01*
X444707D01*
X447193Y946822D01*
X449421Y948109D01*
X451241Y949929D01*
X452528Y952157D01*
X453194Y954643D01*
Y957217D01*
X452528Y959703D01*
X451241Y961931D01*
X449421Y963751D01*
X447193Y965038D01*
X444707Y965704D01*
D02*
G37*
G36*
X419307D02*
X416733D01*
X414247Y965038D01*
X412019Y963751D01*
X410199Y961931D01*
X408912Y959703D01*
X408246Y957217D01*
Y954643D01*
X408912Y952157D01*
X410199Y949929D01*
X412019Y948109D01*
X414247Y946822D01*
X416733Y946156D01*
X419307D01*
X421793Y946822D01*
X424021Y948109D01*
X425841Y949929D01*
X427128Y952157D01*
X427794Y954643D01*
Y957217D01*
X427128Y959703D01*
X425841Y961931D01*
X424021Y963751D01*
X421793Y965038D01*
X419307Y965704D01*
D02*
G37*
G36*
X393907D02*
X391333D01*
X388847Y965038D01*
X386619Y963751D01*
X384799Y961931D01*
X383512Y959703D01*
X382846Y957217D01*
Y954643D01*
X383512Y952157D01*
X384799Y949929D01*
X386619Y948109D01*
X388847Y946822D01*
X391333Y946156D01*
X393907D01*
X396393Y946822D01*
X398621Y948109D01*
X400441Y949929D01*
X401728Y952157D01*
X402394Y954643D01*
Y957217D01*
X401728Y959703D01*
X400441Y961931D01*
X398621Y963751D01*
X396393Y965038D01*
X393907Y965704D01*
D02*
G37*
G36*
X368507D02*
X365933D01*
X363447Y965038D01*
X361219Y963751D01*
X359399Y961931D01*
X358112Y959703D01*
X357446Y957217D01*
Y954643D01*
X358112Y952157D01*
X359399Y949929D01*
X361219Y948109D01*
X363447Y946822D01*
X365933Y946156D01*
X368507D01*
X370993Y946822D01*
X373221Y948109D01*
X375041Y949929D01*
X376328Y952157D01*
X376994Y954643D01*
Y957217D01*
X376328Y959703D01*
X375041Y961931D01*
X373221Y963751D01*
X370993Y965038D01*
X368507Y965704D01*
D02*
G37*
G36*
X343107D02*
X340533D01*
X338047Y965038D01*
X335819Y963751D01*
X333999Y961931D01*
X332712Y959703D01*
X332046Y957217D01*
Y954643D01*
X332712Y952157D01*
X333999Y949929D01*
X335819Y948109D01*
X338047Y946822D01*
X340533Y946156D01*
X343107D01*
X345593Y946822D01*
X347821Y948109D01*
X349641Y949929D01*
X350928Y952157D01*
X351594Y954643D01*
Y957217D01*
X350928Y959703D01*
X349641Y961931D01*
X347821Y963751D01*
X345593Y965038D01*
X343107Y965704D01*
D02*
G37*
G36*
X317707D02*
X315133D01*
X312647Y965038D01*
X310419Y963751D01*
X308599Y961931D01*
X307312Y959703D01*
X306646Y957217D01*
Y954643D01*
X307312Y952157D01*
X308599Y949929D01*
X310419Y948109D01*
X312647Y946822D01*
X315133Y946156D01*
X317707D01*
X320193Y946822D01*
X322421Y948109D01*
X324241Y949929D01*
X325528Y952157D01*
X326194Y954643D01*
Y957217D01*
X325528Y959703D01*
X324241Y961931D01*
X322421Y963751D01*
X320193Y965038D01*
X317707Y965704D01*
D02*
G37*
G36*
X292307D02*
X289733D01*
X287247Y965038D01*
X285019Y963751D01*
X283199Y961931D01*
X281912Y959703D01*
X281246Y957217D01*
Y954643D01*
X281912Y952157D01*
X283199Y949929D01*
X285019Y948109D01*
X287247Y946822D01*
X289733Y946156D01*
X292307D01*
X294793Y946822D01*
X297021Y948109D01*
X298841Y949929D01*
X300128Y952157D01*
X300794Y954643D01*
Y957217D01*
X300128Y959703D01*
X298841Y961931D01*
X297021Y963751D01*
X294793Y965038D01*
X292307Y965704D01*
D02*
G37*
G36*
X266907D02*
X264333D01*
X261847Y965038D01*
X259619Y963751D01*
X257799Y961931D01*
X256512Y959703D01*
X255846Y957217D01*
Y954643D01*
X256512Y952157D01*
X257799Y949929D01*
X259619Y948109D01*
X261847Y946822D01*
X264333Y946156D01*
X266907D01*
X269393Y946822D01*
X271621Y948109D01*
X273441Y949929D01*
X274728Y952157D01*
X275394Y954643D01*
Y957217D01*
X274728Y959703D01*
X273441Y961931D01*
X271621Y963751D01*
X269393Y965038D01*
X266907Y965704D01*
D02*
G37*
G36*
X241507D02*
X238933D01*
X236447Y965038D01*
X234219Y963751D01*
X232399Y961931D01*
X231112Y959703D01*
X230446Y957217D01*
Y954643D01*
X231112Y952157D01*
X232399Y949929D01*
X234219Y948109D01*
X236447Y946822D01*
X238933Y946156D01*
X241507D01*
X243993Y946822D01*
X246221Y948109D01*
X248041Y949929D01*
X249328Y952157D01*
X249994Y954643D01*
Y957217D01*
X249328Y959703D01*
X248041Y961931D01*
X246221Y963751D01*
X243993Y965038D01*
X241507Y965704D01*
D02*
G37*
G36*
X632010Y954660D02*
X622490D01*
Y945140D01*
X622640D01*
X625385Y945875D01*
X627845Y947296D01*
X629854Y949305D01*
X631275Y951765D01*
X632010Y954510D01*
Y954660D01*
D02*
G37*
G36*
X619950D02*
X610430D01*
Y954510D01*
X611165Y951765D01*
X612586Y949305D01*
X614595Y947296D01*
X617055Y945875D01*
X619799Y945140D01*
X619950D01*
Y954660D01*
D02*
G37*
G36*
X606610D02*
X597090D01*
Y945140D01*
X597240D01*
X599985Y945875D01*
X602445Y947296D01*
X604454Y949305D01*
X605875Y951765D01*
X606610Y954510D01*
Y954660D01*
D02*
G37*
G36*
X594550D02*
X585030D01*
Y954510D01*
X585765Y951765D01*
X587186Y949305D01*
X589195Y947296D01*
X591655Y945875D01*
X594399Y945140D01*
X594550D01*
Y954660D01*
D02*
G37*
G36*
X876507Y991094D02*
X873933D01*
X871447Y990428D01*
X869219Y989141D01*
X867399Y987321D01*
X866112Y985093D01*
X865446Y982607D01*
Y980033D01*
X866112Y977547D01*
X867399Y975319D01*
X869219Y973499D01*
X871447Y972212D01*
X872026Y972057D01*
X876943Y967140D01*
X876691Y966309D01*
X876258Y965704D01*
X873933D01*
X871447Y965038D01*
X869219Y963751D01*
X867399Y961931D01*
X866112Y959703D01*
X865446Y957217D01*
Y954643D01*
X866112Y952157D01*
X867399Y949929D01*
X869219Y948109D01*
X871447Y946822D01*
X873933Y946156D01*
X876507D01*
X878993Y946822D01*
X880929Y947940D01*
X882429Y947407D01*
Y939053D01*
X880929Y938520D01*
X878993Y939638D01*
X876507Y940304D01*
X873933D01*
X871447Y939638D01*
X869219Y938351D01*
X867399Y936531D01*
X866112Y934303D01*
X865446Y931817D01*
Y929243D01*
X866112Y926757D01*
X867399Y924529D01*
X869219Y922709D01*
X871447Y921422D01*
X873933Y920756D01*
X876507D01*
X878993Y921422D01*
X880929Y922540D01*
X882429Y922007D01*
Y883554D01*
X853171Y854296D01*
X851969Y852729D01*
X851213Y850905D01*
X850955Y848947D01*
Y820826D01*
X849455Y820424D01*
X848152Y822681D01*
X845541Y825292D01*
X842343Y827138D01*
X838776Y828094D01*
X835084D01*
X831517Y827138D01*
X828319Y825292D01*
X825708Y822681D01*
X823862Y819483D01*
X822906Y815916D01*
Y812224D01*
X823862Y808657D01*
X825708Y805459D01*
X828319Y802848D01*
X831517Y801002D01*
X835084Y800046D01*
X838776D01*
X842343Y801002D01*
X845541Y802848D01*
X848152Y805459D01*
X849455Y807716D01*
X850955Y807315D01*
Y791793D01*
X839944Y780781D01*
X838777Y781094D01*
X835085D01*
X831518Y780138D01*
X828320Y778292D01*
X825709Y775681D01*
X823863Y772483D01*
X822907Y768916D01*
Y765224D01*
X823863Y761657D01*
X825709Y758459D01*
X828320Y755848D01*
X831518Y754002D01*
X835085Y753046D01*
X838777D01*
X842344Y754002D01*
X845542Y755848D01*
X848153Y758459D01*
X848578Y759195D01*
X884991D01*
X886949Y759453D01*
X887873Y759836D01*
X895335D01*
Y773284D01*
X888809D01*
X888773Y773311D01*
X886949Y774067D01*
X884991Y774325D01*
X856843D01*
X856269Y775711D01*
X863869Y783310D01*
X863869Y783310D01*
X865071Y784877D01*
X865827Y786701D01*
X866085Y788659D01*
Y845813D01*
X895343Y875072D01*
X896545Y876638D01*
X897301Y878463D01*
X897559Y880421D01*
Y964787D01*
X897301Y966745D01*
X896545Y968569D01*
X895343Y970136D01*
X884994Y980485D01*
Y982607D01*
X884328Y985093D01*
X883041Y987321D01*
X881221Y989141D01*
X878993Y990428D01*
X876507Y991094D01*
D02*
G37*
G36*
X622640Y941320D02*
X622490D01*
Y931800D01*
X632010D01*
Y931951D01*
X631275Y934695D01*
X629854Y937155D01*
X627845Y939164D01*
X625385Y940585D01*
X622640Y941320D01*
D02*
G37*
G36*
X619950D02*
X619799D01*
X617055Y940585D01*
X614595Y939164D01*
X612586Y937155D01*
X611165Y934695D01*
X610430Y931951D01*
Y931800D01*
X619950D01*
Y941320D01*
D02*
G37*
G36*
X597240D02*
X597090D01*
Y931800D01*
X606610D01*
Y931951D01*
X605875Y934695D01*
X604454Y937155D01*
X602445Y939164D01*
X599985Y940585D01*
X597240Y941320D01*
D02*
G37*
G36*
X594550D02*
X594399D01*
X591655Y940585D01*
X589195Y939164D01*
X587186Y937155D01*
X585765Y934695D01*
X585030Y931951D01*
Y931800D01*
X594550D01*
Y941320D01*
D02*
G37*
G36*
X851107Y940304D02*
X848533D01*
X846047Y939638D01*
X843819Y938351D01*
X841999Y936531D01*
X840712Y934303D01*
X840046Y931817D01*
Y929243D01*
X840712Y926757D01*
X841999Y924529D01*
X843819Y922709D01*
X846047Y921422D01*
X848533Y920756D01*
X851107D01*
X853593Y921422D01*
X855821Y922709D01*
X857641Y924529D01*
X858928Y926757D01*
X859594Y929243D01*
Y931817D01*
X858928Y934303D01*
X857641Y936531D01*
X855821Y938351D01*
X853593Y939638D01*
X851107Y940304D01*
D02*
G37*
G36*
X825707D02*
X823133D01*
X820647Y939638D01*
X818419Y938351D01*
X816599Y936531D01*
X815312Y934303D01*
X814646Y931817D01*
Y929243D01*
X815312Y926757D01*
X816599Y924529D01*
X818419Y922709D01*
X820647Y921422D01*
X823133Y920756D01*
X825707D01*
X828193Y921422D01*
X830421Y922709D01*
X832241Y924529D01*
X833528Y926757D01*
X834194Y929243D01*
Y931817D01*
X833528Y934303D01*
X832241Y936531D01*
X830421Y938351D01*
X828193Y939638D01*
X825707Y940304D01*
D02*
G37*
G36*
X800307D02*
X797733D01*
X795247Y939638D01*
X793019Y938351D01*
X791199Y936531D01*
X789912Y934303D01*
X789246Y931817D01*
Y929243D01*
X789912Y926757D01*
X791199Y924529D01*
X793019Y922709D01*
X795247Y921422D01*
X797733Y920756D01*
X800307D01*
X802793Y921422D01*
X805021Y922709D01*
X806841Y924529D01*
X808128Y926757D01*
X808794Y929243D01*
Y931817D01*
X808128Y934303D01*
X806841Y936531D01*
X805021Y938351D01*
X802793Y939638D01*
X800307Y940304D01*
D02*
G37*
G36*
X774907D02*
X772333D01*
X769847Y939638D01*
X767619Y938351D01*
X765799Y936531D01*
X764512Y934303D01*
X763846Y931817D01*
Y929243D01*
X764512Y926757D01*
X765799Y924529D01*
X767619Y922709D01*
X769847Y921422D01*
X772333Y920756D01*
X774907D01*
X777393Y921422D01*
X779621Y922709D01*
X781441Y924529D01*
X782728Y926757D01*
X783394Y929243D01*
Y931817D01*
X782728Y934303D01*
X781441Y936531D01*
X779621Y938351D01*
X777393Y939638D01*
X774907Y940304D01*
D02*
G37*
G36*
X749507D02*
X746933D01*
X744447Y939638D01*
X742219Y938351D01*
X740399Y936531D01*
X739112Y934303D01*
X738446Y931817D01*
Y929243D01*
X739112Y926757D01*
X740399Y924529D01*
X742219Y922709D01*
X744447Y921422D01*
X746933Y920756D01*
X749507D01*
X751993Y921422D01*
X754221Y922709D01*
X756041Y924529D01*
X757328Y926757D01*
X757994Y929243D01*
Y931817D01*
X757328Y934303D01*
X756041Y936531D01*
X754221Y938351D01*
X751993Y939638D01*
X749507Y940304D01*
D02*
G37*
G36*
X724107D02*
X721533D01*
X719047Y939638D01*
X716819Y938351D01*
X714999Y936531D01*
X713712Y934303D01*
X713046Y931817D01*
Y929243D01*
X713712Y926757D01*
X714999Y924529D01*
X716819Y922709D01*
X719047Y921422D01*
X721533Y920756D01*
X724107D01*
X726593Y921422D01*
X728821Y922709D01*
X730641Y924529D01*
X731928Y926757D01*
X732594Y929243D01*
Y931817D01*
X731928Y934303D01*
X730641Y936531D01*
X728821Y938351D01*
X726593Y939638D01*
X724107Y940304D01*
D02*
G37*
G36*
X698707D02*
X696133D01*
X693647Y939638D01*
X691419Y938351D01*
X689599Y936531D01*
X688312Y934303D01*
X687646Y931817D01*
Y929243D01*
X688312Y926757D01*
X689599Y924529D01*
X691419Y922709D01*
X693647Y921422D01*
X696133Y920756D01*
X698707D01*
X701193Y921422D01*
X703421Y922709D01*
X705241Y924529D01*
X706528Y926757D01*
X707194Y929243D01*
Y931817D01*
X706528Y934303D01*
X705241Y936531D01*
X703421Y938351D01*
X701193Y939638D01*
X698707Y940304D01*
D02*
G37*
G36*
X520907D02*
X518333D01*
X515847Y939638D01*
X513619Y938351D01*
X511799Y936531D01*
X510512Y934303D01*
X509846Y931817D01*
Y929243D01*
X510512Y926757D01*
X511799Y924529D01*
X513619Y922709D01*
X515847Y921422D01*
X518333Y920756D01*
X520907D01*
X523393Y921422D01*
X525621Y922709D01*
X527441Y924529D01*
X528728Y926757D01*
X529394Y929243D01*
Y931817D01*
X528728Y934303D01*
X527441Y936531D01*
X525621Y938351D01*
X523393Y939638D01*
X520907Y940304D01*
D02*
G37*
G36*
X495507D02*
X492933D01*
X490447Y939638D01*
X488219Y938351D01*
X486399Y936531D01*
X485112Y934303D01*
X484446Y931817D01*
Y929243D01*
X485112Y926757D01*
X486399Y924529D01*
X488219Y922709D01*
X490447Y921422D01*
X492933Y920756D01*
X495507D01*
X497993Y921422D01*
X500221Y922709D01*
X502041Y924529D01*
X503328Y926757D01*
X503994Y929243D01*
Y931817D01*
X503328Y934303D01*
X502041Y936531D01*
X500221Y938351D01*
X497993Y939638D01*
X495507Y940304D01*
D02*
G37*
G36*
X470107D02*
X467533D01*
X465047Y939638D01*
X462819Y938351D01*
X460999Y936531D01*
X459712Y934303D01*
X459046Y931817D01*
Y929243D01*
X459712Y926757D01*
X460999Y924529D01*
X462819Y922709D01*
X465047Y921422D01*
X467533Y920756D01*
X470107D01*
X472593Y921422D01*
X474821Y922709D01*
X476641Y924529D01*
X477928Y926757D01*
X478594Y929243D01*
Y931817D01*
X477928Y934303D01*
X476641Y936531D01*
X474821Y938351D01*
X472593Y939638D01*
X470107Y940304D01*
D02*
G37*
G36*
X444707D02*
X442133D01*
X439647Y939638D01*
X437419Y938351D01*
X435599Y936531D01*
X434312Y934303D01*
X433646Y931817D01*
Y929243D01*
X434312Y926757D01*
X435599Y924529D01*
X437419Y922709D01*
X439647Y921422D01*
X442133Y920756D01*
X444707D01*
X447193Y921422D01*
X449421Y922709D01*
X451241Y924529D01*
X452528Y926757D01*
X453194Y929243D01*
Y931817D01*
X452528Y934303D01*
X451241Y936531D01*
X449421Y938351D01*
X447193Y939638D01*
X444707Y940304D01*
D02*
G37*
G36*
X419307D02*
X416733D01*
X414247Y939638D01*
X412019Y938351D01*
X410199Y936531D01*
X408912Y934303D01*
X408246Y931817D01*
Y929243D01*
X408912Y926757D01*
X410199Y924529D01*
X412019Y922709D01*
X414247Y921422D01*
X416733Y920756D01*
X419307D01*
X421793Y921422D01*
X424021Y922709D01*
X425841Y924529D01*
X427128Y926757D01*
X427794Y929243D01*
Y931817D01*
X427128Y934303D01*
X425841Y936531D01*
X424021Y938351D01*
X421793Y939638D01*
X419307Y940304D01*
D02*
G37*
G36*
X393907D02*
X391333D01*
X388847Y939638D01*
X386619Y938351D01*
X384799Y936531D01*
X383512Y934303D01*
X382846Y931817D01*
Y929243D01*
X383512Y926757D01*
X384799Y924529D01*
X386619Y922709D01*
X388847Y921422D01*
X391333Y920756D01*
X393907D01*
X396393Y921422D01*
X398621Y922709D01*
X400441Y924529D01*
X401728Y926757D01*
X402394Y929243D01*
Y931817D01*
X401728Y934303D01*
X400441Y936531D01*
X398621Y938351D01*
X396393Y939638D01*
X393907Y940304D01*
D02*
G37*
G36*
X368507D02*
X365933D01*
X363447Y939638D01*
X361219Y938351D01*
X359399Y936531D01*
X358112Y934303D01*
X357446Y931817D01*
Y929243D01*
X358112Y926757D01*
X359399Y924529D01*
X361219Y922709D01*
X363447Y921422D01*
X365933Y920756D01*
X368507D01*
X370993Y921422D01*
X373221Y922709D01*
X375041Y924529D01*
X376328Y926757D01*
X376994Y929243D01*
Y931817D01*
X376328Y934303D01*
X375041Y936531D01*
X373221Y938351D01*
X370993Y939638D01*
X368507Y940304D01*
D02*
G37*
G36*
X343107D02*
X340533D01*
X338047Y939638D01*
X335819Y938351D01*
X333999Y936531D01*
X332712Y934303D01*
X332046Y931817D01*
Y929243D01*
X332712Y926757D01*
X333999Y924529D01*
X335819Y922709D01*
X338047Y921422D01*
X340533Y920756D01*
X343107D01*
X345593Y921422D01*
X347821Y922709D01*
X349641Y924529D01*
X350928Y926757D01*
X351594Y929243D01*
Y931817D01*
X350928Y934303D01*
X349641Y936531D01*
X347821Y938351D01*
X345593Y939638D01*
X343107Y940304D01*
D02*
G37*
G36*
X317707D02*
X315133D01*
X312647Y939638D01*
X310419Y938351D01*
X308599Y936531D01*
X307312Y934303D01*
X306646Y931817D01*
Y929243D01*
X307312Y926757D01*
X308599Y924529D01*
X310419Y922709D01*
X312647Y921422D01*
X315133Y920756D01*
X317707D01*
X320193Y921422D01*
X322421Y922709D01*
X324241Y924529D01*
X325528Y926757D01*
X326194Y929243D01*
Y931817D01*
X325528Y934303D01*
X324241Y936531D01*
X322421Y938351D01*
X320193Y939638D01*
X317707Y940304D01*
D02*
G37*
G36*
X292307D02*
X289733D01*
X287247Y939638D01*
X285019Y938351D01*
X283199Y936531D01*
X281912Y934303D01*
X281246Y931817D01*
Y929243D01*
X281912Y926757D01*
X283199Y924529D01*
X285019Y922709D01*
X287247Y921422D01*
X289733Y920756D01*
X292307D01*
X294793Y921422D01*
X297021Y922709D01*
X298841Y924529D01*
X300128Y926757D01*
X300794Y929243D01*
Y931817D01*
X300128Y934303D01*
X298841Y936531D01*
X297021Y938351D01*
X294793Y939638D01*
X292307Y940304D01*
D02*
G37*
G36*
X266907D02*
X264333D01*
X261847Y939638D01*
X259619Y938351D01*
X257799Y936531D01*
X256512Y934303D01*
X255846Y931817D01*
Y929243D01*
X256512Y926757D01*
X257799Y924529D01*
X259619Y922709D01*
X261847Y921422D01*
X264333Y920756D01*
X266907D01*
X269393Y921422D01*
X271621Y922709D01*
X273441Y924529D01*
X274728Y926757D01*
X275394Y929243D01*
Y931817D01*
X274728Y934303D01*
X273441Y936531D01*
X271621Y938351D01*
X269393Y939638D01*
X266907Y940304D01*
D02*
G37*
G36*
X241507D02*
X238933D01*
X236447Y939638D01*
X234219Y938351D01*
X232399Y936531D01*
X231112Y934303D01*
X230446Y931817D01*
Y929243D01*
X231112Y926757D01*
X232399Y924529D01*
X234219Y922709D01*
X236447Y921422D01*
X238933Y920756D01*
X241507D01*
X243993Y921422D01*
X246221Y922709D01*
X248041Y924529D01*
X249328Y926757D01*
X249994Y929243D01*
Y931817D01*
X249328Y934303D01*
X248041Y936531D01*
X246221Y938351D01*
X243993Y939638D01*
X241507Y940304D01*
D02*
G37*
G36*
X546307Y965704D02*
X543733D01*
X541247Y965038D01*
X539019Y963751D01*
X537199Y961931D01*
X535912Y959703D01*
X535246Y957217D01*
Y954643D01*
X535912Y952157D01*
X537199Y949929D01*
X537455Y949672D01*
Y936788D01*
X537199Y936531D01*
X535912Y934303D01*
X535246Y931817D01*
Y929243D01*
X535912Y926757D01*
X537199Y924529D01*
X538789Y922939D01*
X538957Y921662D01*
X539712Y919838D01*
X540915Y918271D01*
X550135Y909051D01*
X550135Y909051D01*
X551702Y907849D01*
X553526Y907093D01*
X555484Y906835D01*
X662347D01*
X701255Y867927D01*
Y775205D01*
X682239D01*
X680720Y775405D01*
X678762Y775147D01*
X677355Y774564D01*
X671846D01*
Y761116D01*
X677102D01*
X677138Y761089D01*
X678962Y760333D01*
X680920Y760075D01*
X680920Y760075D01*
X705288D01*
X706861Y759424D01*
X708819Y759166D01*
X710777Y759424D01*
X712350Y760075D01*
X718101D01*
X719028Y758469D01*
X721639Y755858D01*
X724837Y754012D01*
X728404Y753056D01*
X732096D01*
X735663Y754012D01*
X738861Y755858D01*
X741472Y758469D01*
X743318Y761667D01*
X744274Y765234D01*
Y768926D01*
X743318Y772493D01*
X741472Y775691D01*
X738861Y778302D01*
X735663Y780148D01*
X732096Y781104D01*
X730544D01*
X716384Y795264D01*
Y807047D01*
X717884Y807449D01*
X719027Y805469D01*
X721638Y802858D01*
X724836Y801012D01*
X728403Y800056D01*
X732095D01*
X735662Y801012D01*
X738860Y802858D01*
X741471Y805469D01*
X743317Y808667D01*
X744273Y812234D01*
Y815926D01*
X743317Y819493D01*
X741471Y822691D01*
X738860Y825302D01*
X735662Y827148D01*
X732095Y828104D01*
X728403D01*
X724836Y827148D01*
X721638Y825302D01*
X719027Y822691D01*
X717884Y820711D01*
X716384Y821113D01*
Y854048D01*
X717884Y854450D01*
X719028Y852469D01*
X721639Y849858D01*
X724837Y848012D01*
X728404Y847056D01*
X732096D01*
X735663Y848012D01*
X738861Y849858D01*
X741472Y852469D01*
X743318Y855667D01*
X744274Y859234D01*
Y862926D01*
X743318Y866493D01*
X741472Y869691D01*
X738861Y872302D01*
X735663Y874148D01*
X732096Y875104D01*
X728404D01*
X724837Y874148D01*
X721639Y872302D01*
X719028Y869691D01*
X717884Y867710D01*
X716384Y868111D01*
Y871060D01*
X716384Y871061D01*
X716126Y873018D01*
X715371Y874843D01*
X714168Y876410D01*
X671322Y919256D01*
X671944Y920756D01*
X673307D01*
X675793Y921422D01*
X678021Y922709D01*
X679841Y924529D01*
X681128Y926757D01*
X681794Y929243D01*
Y931817D01*
X681128Y934303D01*
X679841Y936531D01*
X678021Y938351D01*
X675793Y939638D01*
X673307Y940304D01*
X670733D01*
X668247Y939638D01*
X666019Y938351D01*
X664199Y936531D01*
X662912Y934303D01*
X662246Y931817D01*
Y929243D01*
X662912Y926757D01*
X664199Y924529D01*
X665263Y923465D01*
X664641Y921965D01*
X653998D01*
X653377Y923465D01*
X654441Y924529D01*
X655728Y926757D01*
X656394Y929243D01*
Y931817D01*
X655728Y934303D01*
X654441Y936531D01*
X652621Y938351D01*
X650393Y939638D01*
X647907Y940304D01*
X645333D01*
X642847Y939638D01*
X640619Y938351D01*
X638799Y936531D01*
X637512Y934303D01*
X636846Y931817D01*
Y929243D01*
X637512Y926757D01*
X638799Y924529D01*
X639863Y923465D01*
X639241Y921965D01*
X629874D01*
X629300Y923351D01*
X629854Y923905D01*
X631275Y926365D01*
X632010Y929109D01*
Y929260D01*
X610430D01*
Y929109D01*
X611165Y926365D01*
X612586Y923905D01*
X613140Y923351D01*
X612566Y921965D01*
X604474D01*
X603900Y923351D01*
X604454Y923905D01*
X605875Y926365D01*
X606610Y929109D01*
Y929260D01*
X585030D01*
Y929109D01*
X585765Y926365D01*
X587186Y923905D01*
X587740Y923351D01*
X587166Y921965D01*
X577799D01*
X577177Y923465D01*
X578241Y924529D01*
X579528Y926757D01*
X580194Y929243D01*
Y931817D01*
X579528Y934303D01*
X578241Y936531D01*
X576421Y938351D01*
X574193Y939638D01*
X571707Y940304D01*
X569133D01*
X566647Y939638D01*
X564419Y938351D01*
X562599Y936531D01*
X561312Y934303D01*
X560646Y931817D01*
Y929243D01*
X561312Y926757D01*
X562599Y924529D01*
X563663Y923465D01*
X563041Y921965D01*
X558617D01*
X554017Y926565D01*
X554128Y926757D01*
X554794Y929243D01*
Y931817D01*
X554128Y934303D01*
X552841Y936531D01*
X552585Y936788D01*
Y949672D01*
X552841Y949929D01*
X554128Y952157D01*
X554794Y954643D01*
Y957217D01*
X554128Y959703D01*
X552841Y961931D01*
X551021Y963751D01*
X548793Y965038D01*
X546307Y965704D01*
D02*
G37*
G36*
X838777Y875094D02*
X835085D01*
X831518Y874138D01*
X828320Y872292D01*
X825709Y869681D01*
X823863Y866483D01*
X822907Y862916D01*
Y859224D01*
X823863Y855657D01*
X825709Y852459D01*
X828320Y849848D01*
X831518Y848002D01*
X835085Y847046D01*
X838777D01*
X842344Y848002D01*
X845542Y849848D01*
X848153Y852459D01*
X849999Y855657D01*
X850955Y859224D01*
Y862916D01*
X849999Y866483D01*
X848153Y869681D01*
X845542Y872292D01*
X842344Y874138D01*
X838777Y875094D01*
D02*
G37*
G36*
X559376D02*
X555684D01*
X552117Y874138D01*
X548919Y872292D01*
X546308Y869681D01*
X544462Y866483D01*
X543506Y862916D01*
Y859224D01*
X544462Y855657D01*
X546308Y852459D01*
X548919Y849848D01*
X552117Y848002D01*
X555684Y847046D01*
X559376D01*
X562943Y848002D01*
X566141Y849848D01*
X568752Y852459D01*
X570598Y855657D01*
X571554Y859224D01*
Y862916D01*
X570598Y866483D01*
X568752Y869681D01*
X566141Y872292D01*
X562943Y874138D01*
X559376Y875094D01*
D02*
G37*
G36*
X447616D02*
X443924D01*
X440357Y874138D01*
X437159Y872292D01*
X434548Y869681D01*
X432702Y866483D01*
X431746Y862916D01*
Y859224D01*
X432702Y855657D01*
X434548Y852459D01*
X437159Y849848D01*
X440357Y848002D01*
X443924Y847046D01*
X447616D01*
X451183Y848002D01*
X454381Y849848D01*
X456992Y852459D01*
X458838Y855657D01*
X459794Y859224D01*
Y862916D01*
X458838Y866483D01*
X456992Y869681D01*
X454381Y872292D01*
X451183Y874138D01*
X447616Y875094D01*
D02*
G37*
G36*
X559375Y828094D02*
X555683D01*
X552116Y827138D01*
X548918Y825292D01*
X548182Y824556D01*
X548121Y824509D01*
X545247Y821635D01*
X457595D01*
X456991Y822681D01*
X454380Y825292D01*
X451182Y827138D01*
X447616Y828094D01*
X443923D01*
X440356Y827138D01*
X437158Y825292D01*
X434547Y822681D01*
X432701Y819483D01*
X431745Y815916D01*
Y812224D01*
X432701Y808657D01*
X434547Y805459D01*
X437158Y802848D01*
X440356Y801002D01*
X443923Y800046D01*
X447616D01*
X448782Y800359D01*
X462335Y786806D01*
Y721378D01*
X378820D01*
X376869Y720990D01*
X375215Y719885D01*
X374110Y718231D01*
X373722Y716280D01*
Y321310D01*
X374110Y319359D01*
X375215Y317705D01*
X376869Y316600D01*
X378820Y316212D01*
X628650D01*
X630601Y316600D01*
X632255Y317705D01*
X633360Y319359D01*
X633748Y321310D01*
Y716280D01*
X633360Y718231D01*
X632255Y719885D01*
X630601Y720990D01*
X628650Y721378D01*
X477465D01*
Y789939D01*
X477207Y791897D01*
X476451Y793722D01*
X475249Y795288D01*
X465418Y805119D01*
X465992Y806505D01*
X545703D01*
X546307Y805459D01*
X548918Y802848D01*
X552116Y801002D01*
X555683Y800046D01*
X559375D01*
X562942Y801002D01*
X566140Y802848D01*
X568751Y805459D01*
X570597Y808657D01*
X571553Y812224D01*
Y815916D01*
X570597Y819483D01*
X568751Y822681D01*
X566140Y825292D01*
X562942Y827138D01*
X559375Y828094D01*
D02*
G37*
G36*
X690316Y826840D02*
X685046D01*
Y821570D01*
X690316D01*
Y826840D01*
D02*
G37*
G36*
X682506D02*
X677236D01*
Y821570D01*
X682506D01*
Y826840D01*
D02*
G37*
G36*
X609790D02*
X604520D01*
Y821570D01*
X609790D01*
Y826840D01*
D02*
G37*
G36*
X601980D02*
X596710D01*
Y821570D01*
X601980D01*
Y826840D01*
D02*
G37*
G36*
X889651Y825560D02*
X884381D01*
Y820290D01*
X889651D01*
Y825560D01*
D02*
G37*
G36*
X881841D02*
X876571D01*
Y820290D01*
X881841D01*
Y825560D01*
D02*
G37*
G36*
X400994Y824300D02*
X395724D01*
Y819030D01*
X400994D01*
Y824300D01*
D02*
G37*
G36*
X393184D02*
X387914D01*
Y819030D01*
X393184D01*
Y824300D01*
D02*
G37*
G36*
X690316Y819030D02*
X685046D01*
Y813760D01*
X690316D01*
Y819030D01*
D02*
G37*
G36*
X682506D02*
X677236D01*
Y813760D01*
X682506D01*
Y819030D01*
D02*
G37*
G36*
X609790D02*
X604520D01*
Y813760D01*
X609790D01*
Y819030D01*
D02*
G37*
G36*
X601980D02*
X596710D01*
Y813760D01*
X601980D01*
Y819030D01*
D02*
G37*
G36*
X889651Y817750D02*
X884381D01*
Y812480D01*
X889651D01*
Y817750D01*
D02*
G37*
G36*
X881841D02*
X876571D01*
Y812480D01*
X881841D01*
Y817750D01*
D02*
G37*
G36*
X400994Y816490D02*
X395724D01*
Y811220D01*
X400994D01*
Y816490D01*
D02*
G37*
G36*
X393184D02*
X387914D01*
Y811220D01*
X393184D01*
Y816490D01*
D02*
G37*
G36*
X689300Y810824D02*
X678252D01*
Y799776D01*
X679698D01*
Y793364D01*
X671846D01*
Y779916D01*
X689594D01*
Y793364D01*
X687854D01*
Y799776D01*
X689300D01*
Y810824D01*
D02*
G37*
G36*
X608774D02*
X597726D01*
Y799776D01*
X599172D01*
Y793364D01*
X597726D01*
Y779916D01*
X615474D01*
Y793364D01*
X607328D01*
Y799776D01*
X608774D01*
Y810824D01*
D02*
G37*
G36*
X399978Y808284D02*
X388930D01*
Y797236D01*
X390376D01*
Y792094D01*
X387366D01*
Y778646D01*
X405114D01*
Y792094D01*
X398532D01*
Y797236D01*
X399978D01*
Y808284D01*
D02*
G37*
G36*
X888635Y809544D02*
X877587D01*
Y803907D01*
X877421Y803659D01*
X877111Y802098D01*
X877111Y802098D01*
Y789060D01*
X877111Y789060D01*
X877421Y787499D01*
X877587Y787252D01*
Y778636D01*
X895335D01*
Y792084D01*
X885268D01*
Y798496D01*
X888635D01*
Y809544D01*
D02*
G37*
G36*
X447616Y781094D02*
X443924D01*
X440357Y780138D01*
X437159Y778292D01*
X434548Y775681D01*
X433944Y774635D01*
X396350D01*
X396350Y774635D01*
X394392Y774377D01*
X393807Y774135D01*
X393700D01*
X391742Y773877D01*
X390335Y773294D01*
X387366D01*
Y770635D01*
X387149Y770352D01*
X386393Y768528D01*
X386135Y766570D01*
X386393Y764612D01*
X387149Y762788D01*
X387366Y762505D01*
Y759846D01*
X390335D01*
X391742Y759263D01*
X393700Y759005D01*
X395850D01*
X397808Y759263D01*
X398393Y759505D01*
X433944D01*
X434548Y758459D01*
X437159Y755848D01*
X440357Y754002D01*
X443924Y753046D01*
X447616D01*
X451183Y754002D01*
X454381Y755848D01*
X456992Y758459D01*
X458838Y761657D01*
X459794Y765224D01*
Y768916D01*
X458838Y772483D01*
X456992Y775681D01*
X454381Y778292D01*
X451183Y780138D01*
X447616Y781094D01*
D02*
G37*
G36*
X206092Y699008D02*
X205740D01*
Y687959D01*
X216789D01*
Y688311D01*
X215949Y691444D01*
X214328Y694253D01*
X212034Y696547D01*
X209225Y698168D01*
X206092Y699008D01*
D02*
G37*
G36*
X203200D02*
X202848D01*
X199715Y698168D01*
X196906Y696547D01*
X194612Y694253D01*
X192990Y691444D01*
X192151Y688311D01*
Y687959D01*
X203200D01*
Y699008D01*
D02*
G37*
G36*
X216789Y685419D02*
X205740D01*
Y674370D01*
X206092D01*
X209225Y675210D01*
X212034Y676831D01*
X214328Y679125D01*
X215949Y681934D01*
X216789Y685067D01*
Y685419D01*
D02*
G37*
G36*
X203200D02*
X192151D01*
Y685067D01*
X192990Y681934D01*
X194612Y679125D01*
X196906Y676831D01*
X199715Y675210D01*
X202848Y674370D01*
X203200D01*
Y685419D01*
D02*
G37*
G36*
X298736Y698435D02*
X297180D01*
Y656590D01*
X339025D01*
Y658146D01*
X338287Y663749D01*
X336824Y669209D01*
X334662Y674430D01*
X331836Y679325D01*
X328395Y683809D01*
X324399Y687805D01*
X319915Y691246D01*
X315020Y694072D01*
X309799Y696234D01*
X304339Y697697D01*
X298736Y698435D01*
D02*
G37*
G36*
X294640D02*
X293084D01*
X287481Y697697D01*
X282021Y696234D01*
X276800Y694072D01*
X271905Y691246D01*
X267421Y687805D01*
X263425Y683809D01*
X259984Y679325D01*
X257158Y674430D01*
X254995Y669209D01*
X253533Y663749D01*
X252795Y658146D01*
Y656590D01*
X294640D01*
Y698435D01*
D02*
G37*
G36*
X206092Y648208D02*
X205740D01*
Y637159D01*
X216789D01*
Y637511D01*
X215949Y640644D01*
X214328Y643453D01*
X212034Y645747D01*
X209225Y647368D01*
X206092Y648208D01*
D02*
G37*
G36*
X203200D02*
X202848D01*
X199715Y647368D01*
X196906Y645747D01*
X194612Y643453D01*
X192990Y640644D01*
X192151Y637511D01*
Y637159D01*
X203200D01*
Y648208D01*
D02*
G37*
G36*
X216789Y634619D02*
X205740D01*
Y623570D01*
X206092D01*
X209225Y624409D01*
X212034Y626031D01*
X214328Y628325D01*
X215949Y631134D01*
X216789Y634267D01*
Y634619D01*
D02*
G37*
G36*
X203200D02*
X192151D01*
Y634267D01*
X192990Y631134D01*
X194612Y628325D01*
X196906Y626031D01*
X199715Y624409D01*
X202848Y623570D01*
X203200D01*
Y634619D01*
D02*
G37*
G36*
X339025Y654050D02*
X297180D01*
Y612205D01*
X298736D01*
X304339Y612943D01*
X309799Y614406D01*
X315020Y616568D01*
X319915Y619394D01*
X324399Y622835D01*
X328395Y626831D01*
X331836Y631315D01*
X334662Y636210D01*
X336824Y641431D01*
X338287Y646891D01*
X339025Y652494D01*
Y654050D01*
D02*
G37*
G36*
X294640D02*
X252795D01*
Y652494D01*
X253533Y646891D01*
X254995Y641431D01*
X257158Y636210D01*
X259984Y631315D01*
X263425Y626831D01*
X267421Y622835D01*
X271905Y619394D01*
X276800Y616568D01*
X282021Y614406D01*
X287481Y612943D01*
X293084Y612205D01*
X294640D01*
Y654050D01*
D02*
G37*
G36*
X206092Y579205D02*
X205740D01*
Y568156D01*
X216789D01*
Y568507D01*
X215949Y571641D01*
X214328Y574450D01*
X212034Y576743D01*
X209225Y578365D01*
X206092Y579205D01*
D02*
G37*
G36*
X203200D02*
X202848D01*
X199715Y578365D01*
X196906Y576743D01*
X194612Y574450D01*
X192990Y571641D01*
X192151Y568507D01*
Y568156D01*
X203200D01*
Y579205D01*
D02*
G37*
G36*
X216789Y565616D02*
X205740D01*
Y554567D01*
X206092D01*
X209225Y555406D01*
X212034Y557028D01*
X214328Y559322D01*
X215949Y562131D01*
X216789Y565264D01*
Y565616D01*
D02*
G37*
G36*
X203200D02*
X192151D01*
Y565264D01*
X192990Y562131D01*
X194612Y559322D01*
X196906Y557028D01*
X199715Y555406D01*
X202848Y554567D01*
X203200D01*
Y565616D01*
D02*
G37*
G36*
X298736Y578632D02*
X297180D01*
Y536787D01*
X339025D01*
Y538343D01*
X338287Y543946D01*
X336824Y549405D01*
X334662Y554627D01*
X331836Y559521D01*
X328395Y564005D01*
X324399Y568002D01*
X319915Y571442D01*
X315020Y574268D01*
X309799Y576431D01*
X304339Y577894D01*
X298736Y578632D01*
D02*
G37*
G36*
X294640D02*
X293084D01*
X287481Y577894D01*
X282021Y576431D01*
X276800Y574268D01*
X271905Y571442D01*
X267421Y568002D01*
X263425Y564005D01*
X259984Y559521D01*
X257158Y554627D01*
X254995Y549405D01*
X253533Y543946D01*
X252795Y538343D01*
Y536787D01*
X294640D01*
Y578632D01*
D02*
G37*
G36*
X206092Y528405D02*
X205740D01*
Y517356D01*
X216789D01*
Y517707D01*
X215949Y520841D01*
X214328Y523650D01*
X212034Y525943D01*
X209225Y527565D01*
X206092Y528405D01*
D02*
G37*
G36*
X203200D02*
X202848D01*
X199715Y527565D01*
X196906Y525943D01*
X194612Y523650D01*
X192990Y520841D01*
X192151Y517707D01*
Y517356D01*
X203200D01*
Y528405D01*
D02*
G37*
G36*
X216789Y514816D02*
X205740D01*
Y503767D01*
X206092D01*
X209225Y504606D01*
X212034Y506228D01*
X214328Y508522D01*
X215949Y511331D01*
X216789Y514464D01*
Y514816D01*
D02*
G37*
G36*
X203200D02*
X192151D01*
Y514464D01*
X192990Y511331D01*
X194612Y508522D01*
X196906Y506228D01*
X199715Y504606D01*
X202848Y503767D01*
X203200D01*
Y514816D01*
D02*
G37*
G36*
X339025Y534247D02*
X297180D01*
Y492402D01*
X298736D01*
X304339Y493139D01*
X309799Y494602D01*
X315020Y496765D01*
X319915Y499591D01*
X324399Y503032D01*
X328395Y507028D01*
X331836Y511512D01*
X334662Y516406D01*
X336824Y521628D01*
X338287Y527087D01*
X339025Y532691D01*
Y534247D01*
D02*
G37*
G36*
X294640D02*
X252795D01*
Y532691D01*
X253533Y527087D01*
X254995Y521628D01*
X257158Y516406D01*
X259984Y511512D01*
X263425Y507028D01*
X267421Y503032D01*
X271905Y499591D01*
X276800Y496765D01*
X282021Y494602D01*
X287481Y493139D01*
X293084Y492402D01*
X294640D01*
Y534247D01*
D02*
G37*
G36*
X207362Y459401D02*
X207010D01*
Y448352D01*
X218059D01*
Y448704D01*
X217220Y451837D01*
X215598Y454646D01*
X213304Y456940D01*
X210495Y458562D01*
X207362Y459401D01*
D02*
G37*
G36*
X204470D02*
X204118D01*
X200985Y458562D01*
X198176Y456940D01*
X195882Y454646D01*
X194261Y451837D01*
X193421Y448704D01*
Y448352D01*
X204470D01*
Y459401D01*
D02*
G37*
G36*
X218059Y445812D02*
X207010D01*
Y434763D01*
X207362D01*
X210495Y435603D01*
X213304Y437225D01*
X215598Y439518D01*
X217220Y442327D01*
X218059Y445461D01*
Y445812D01*
D02*
G37*
G36*
X204470D02*
X193421D01*
Y445461D01*
X194261Y442327D01*
X195882Y439518D01*
X198176Y437225D01*
X200985Y435603D01*
X204118Y434763D01*
X204470D01*
Y445812D01*
D02*
G37*
G36*
X298736Y458828D02*
X297180D01*
Y416983D01*
X339025D01*
Y418539D01*
X338287Y424143D01*
X336824Y429602D01*
X334662Y434823D01*
X331836Y439718D01*
X328395Y444202D01*
X324399Y448198D01*
X319915Y451639D01*
X315020Y454465D01*
X309799Y456628D01*
X304339Y458091D01*
X298736Y458828D01*
D02*
G37*
G36*
X294640D02*
X293084D01*
X287481Y458091D01*
X282021Y456628D01*
X276800Y454465D01*
X271905Y451639D01*
X267421Y448198D01*
X263425Y444202D01*
X259984Y439718D01*
X257158Y434823D01*
X254995Y429602D01*
X253533Y424143D01*
X252795Y418539D01*
Y416983D01*
X294640D01*
Y458828D01*
D02*
G37*
G36*
X207362Y408601D02*
X207010D01*
Y397552D01*
X218059D01*
Y397904D01*
X217220Y401037D01*
X215598Y403846D01*
X213304Y406140D01*
X210495Y407762D01*
X207362Y408601D01*
D02*
G37*
G36*
X204470D02*
X204118D01*
X200985Y407762D01*
X198176Y406140D01*
X195882Y403846D01*
X194261Y401037D01*
X193421Y397904D01*
Y397552D01*
X204470D01*
Y408601D01*
D02*
G37*
G36*
X218059Y395012D02*
X207010D01*
Y383963D01*
X207362D01*
X210495Y384803D01*
X213304Y386425D01*
X215598Y388718D01*
X217220Y391527D01*
X218059Y394660D01*
Y395012D01*
D02*
G37*
G36*
X204470D02*
X193421D01*
Y394660D01*
X194261Y391527D01*
X195882Y388718D01*
X198176Y386425D01*
X200985Y384803D01*
X204118Y383963D01*
X204470D01*
Y395012D01*
D02*
G37*
G36*
X339025Y414443D02*
X297180D01*
Y372598D01*
X298736D01*
X304339Y373336D01*
X309799Y374799D01*
X315020Y376962D01*
X319915Y379788D01*
X324399Y383228D01*
X328395Y387225D01*
X331836Y391708D01*
X334662Y396603D01*
X336824Y401825D01*
X338287Y407284D01*
X339025Y412887D01*
Y414443D01*
D02*
G37*
G36*
X294640D02*
X252795D01*
Y412887D01*
X253533Y407284D01*
X254995Y401825D01*
X257158Y396603D01*
X259984Y391708D01*
X263425Y387225D01*
X267421Y383228D01*
X271905Y379788D01*
X276800Y376962D01*
X282021Y374799D01*
X287481Y373336D01*
X293084Y372598D01*
X294640D01*
Y414443D01*
D02*
G37*
G36*
X204822Y339598D02*
X204470D01*
Y328549D01*
X215519D01*
Y328901D01*
X214680Y332034D01*
X213058Y334843D01*
X210764Y337137D01*
X207955Y338759D01*
X204822Y339598D01*
D02*
G37*
G36*
X201930D02*
X201578D01*
X198445Y338759D01*
X195636Y337137D01*
X193342Y334843D01*
X191721Y332034D01*
X190881Y328901D01*
Y328549D01*
X201930D01*
Y339598D01*
D02*
G37*
G36*
X215519Y326009D02*
X204470D01*
Y314960D01*
X204822D01*
X207955Y315800D01*
X210764Y317421D01*
X213058Y319715D01*
X214680Y322524D01*
X215519Y325657D01*
Y326009D01*
D02*
G37*
G36*
X201930D02*
X190881D01*
Y325657D01*
X191721Y322524D01*
X193342Y319715D01*
X195636Y317421D01*
X198445Y315800D01*
X201578Y314960D01*
X201930D01*
Y326009D01*
D02*
G37*
G36*
X298736Y339025D02*
X297180D01*
Y297180D01*
X339025D01*
Y298736D01*
X338287Y304339D01*
X336824Y309799D01*
X334662Y315020D01*
X331836Y319915D01*
X328395Y324399D01*
X324399Y328395D01*
X319915Y331836D01*
X315020Y334662D01*
X309799Y336824D01*
X304339Y338287D01*
X298736Y339025D01*
D02*
G37*
G36*
X294640D02*
X293084D01*
X287481Y338287D01*
X282021Y336824D01*
X276800Y334662D01*
X271905Y331836D01*
X267421Y328395D01*
X263425Y324399D01*
X259984Y319915D01*
X257158Y315020D01*
X254995Y309799D01*
X253533Y304339D01*
X252795Y298736D01*
Y297180D01*
X294640D01*
Y339025D01*
D02*
G37*
G36*
X204822Y288798D02*
X204470D01*
Y277749D01*
X215519D01*
Y278101D01*
X214680Y281234D01*
X213058Y284043D01*
X210764Y286337D01*
X207955Y287959D01*
X204822Y288798D01*
D02*
G37*
G36*
X201930D02*
X201578D01*
X198445Y287959D01*
X195636Y286337D01*
X193342Y284043D01*
X191721Y281234D01*
X190881Y278101D01*
Y277749D01*
X201930D01*
Y288798D01*
D02*
G37*
G36*
X215519Y275209D02*
X204470D01*
Y264160D01*
X204822D01*
X207955Y265000D01*
X210764Y266621D01*
X213058Y268915D01*
X214680Y271724D01*
X215519Y274857D01*
Y275209D01*
D02*
G37*
G36*
X201930D02*
X190881D01*
Y274857D01*
X191721Y271724D01*
X193342Y268915D01*
X195636Y266621D01*
X198445Y265000D01*
X201578Y264160D01*
X201930D01*
Y275209D01*
D02*
G37*
G36*
X339025Y294640D02*
X297180D01*
Y252795D01*
X298736D01*
X304339Y253533D01*
X309799Y254995D01*
X315020Y257158D01*
X319915Y259984D01*
X324399Y263425D01*
X328395Y267421D01*
X331836Y271905D01*
X334662Y276800D01*
X336824Y282021D01*
X338287Y287481D01*
X339025Y293084D01*
Y294640D01*
D02*
G37*
G36*
X294640D02*
X252795D01*
Y293084D01*
X253533Y287481D01*
X254995Y282021D01*
X257158Y276800D01*
X259984Y271905D01*
X263425Y267421D01*
X267421Y263425D01*
X271905Y259984D01*
X276800Y257158D01*
X282021Y254995D01*
X287481Y253533D01*
X293084Y252795D01*
X294640D01*
Y294640D01*
D02*
G37*
G36*
X576443Y262700D02*
X575733D01*
Y248930D01*
X589503D01*
Y249640D01*
X588478Y253465D01*
X586498Y256895D01*
X583698Y259695D01*
X580269Y261675D01*
X576443Y262700D01*
D02*
G37*
G36*
X573193D02*
X572483D01*
X568658Y261675D01*
X565229Y259695D01*
X562428Y256895D01*
X560448Y253465D01*
X559423Y249640D01*
Y248930D01*
X573193D01*
Y262700D01*
D02*
G37*
G36*
X716433Y261684D02*
X712740D01*
X709174Y260728D01*
X705976Y258882D01*
X703365Y256271D01*
X701518Y253073D01*
X700563Y249506D01*
Y245814D01*
X701518Y242247D01*
X703365Y239049D01*
X705976Y236438D01*
X709174Y234592D01*
X712740Y233636D01*
X716433D01*
X720000Y234592D01*
X723198Y236438D01*
X725809Y239049D01*
X727655Y242247D01*
X728611Y245814D01*
Y249506D01*
X727655Y253073D01*
X725809Y256271D01*
X723198Y258882D01*
X720000Y260728D01*
X716433Y261684D01*
D02*
G37*
G36*
X589503Y246390D02*
X575733D01*
Y232620D01*
X576443D01*
X580269Y233645D01*
X583698Y235625D01*
X586498Y238425D01*
X588478Y241855D01*
X589503Y245680D01*
Y246390D01*
D02*
G37*
G36*
X573193D02*
X559423D01*
Y245680D01*
X560448Y241855D01*
X562428Y238425D01*
X565229Y235625D01*
X568658Y233645D01*
X572483Y232620D01*
X573193D01*
Y246390D01*
D02*
G37*
G36*
X810704Y212414D02*
X799656D01*
Y210968D01*
X795726D01*
X794650Y211414D01*
X792850D01*
X791187Y210725D01*
X789915Y209453D01*
X789226Y207790D01*
Y205990D01*
X789915Y204327D01*
X791187Y203055D01*
X792850Y202366D01*
X794650D01*
X795726Y202812D01*
X799656D01*
Y201366D01*
X810704D01*
Y212414D01*
D02*
G37*
G36*
X387350Y241680D02*
X377190D01*
X376024Y241196D01*
X375540Y240030D01*
Y212090D01*
X376024Y210924D01*
X377190Y210440D01*
X387350D01*
X388516Y210924D01*
X389000Y212090D01*
Y240030D01*
X388516Y241196D01*
X387350Y241680D01*
D02*
G37*
G36*
X473340Y219154D02*
X471540D01*
X469877Y218465D01*
X468605Y217193D01*
X467916Y215530D01*
Y213730D01*
X468605Y212067D01*
X469877Y210795D01*
X471540Y210106D01*
X472369D01*
X473014Y209978D01*
X473014Y209978D01*
X475015D01*
X478346Y206646D01*
Y201366D01*
X489394D01*
Y212414D01*
X484114D01*
X479588Y216940D01*
X478265Y217824D01*
X476704Y218134D01*
X476704Y218134D01*
X475334D01*
X475003Y218465D01*
X473340Y219154D01*
D02*
G37*
G36*
X811720Y198430D02*
X806450D01*
Y193160D01*
X811720D01*
Y198430D01*
D02*
G37*
G36*
X803910D02*
X798640D01*
Y193160D01*
X803910D01*
Y198430D01*
D02*
G37*
G36*
X576309Y214684D02*
X572616D01*
X569049Y213728D01*
X565852Y211882D01*
X563241Y209271D01*
X561394Y206073D01*
X560439Y202506D01*
Y198814D01*
X561394Y195247D01*
X562085Y194050D01*
X524513Y156478D01*
X359798D01*
X359361Y157235D01*
X357895Y158701D01*
X356099Y159737D01*
X354097Y160274D01*
X352023D01*
X350021Y159737D01*
X348225Y158701D01*
X346759Y157235D01*
X345723Y155439D01*
X345186Y153437D01*
Y151363D01*
X345723Y149361D01*
X346759Y147565D01*
X348225Y146099D01*
X350021Y145063D01*
X352023Y144526D01*
X354097D01*
X356099Y145063D01*
X357895Y146099D01*
X359361Y147565D01*
X359798Y148322D01*
X526202D01*
X526203Y148322D01*
X527763Y148632D01*
X529086Y149516D01*
X567853Y188283D01*
X569049Y187592D01*
X572616Y186636D01*
X576309D01*
X579876Y187592D01*
X583074Y189438D01*
X585685Y192049D01*
X587531Y195247D01*
X588487Y198814D01*
Y202506D01*
X587531Y206073D01*
X585685Y209271D01*
X583074Y211882D01*
X579876Y213728D01*
X576309Y214684D01*
D02*
G37*
G36*
X811720Y190620D02*
X806450D01*
Y185350D01*
X811720D01*
Y190620D01*
D02*
G37*
G36*
X803910D02*
X798640D01*
Y185350D01*
X803910D01*
Y190620D01*
D02*
G37*
G36*
X489394Y197414D02*
X478346D01*
Y186366D01*
X489394D01*
Y187812D01*
X491119D01*
X494451Y184480D01*
X494451Y184480D01*
X494998Y184115D01*
X495584Y183529D01*
X497246Y182840D01*
X499046D01*
X500709Y183529D01*
X501982Y184802D01*
X502670Y186464D01*
Y188264D01*
X501982Y189927D01*
X500709Y191199D01*
X499046Y191888D01*
X498578D01*
X495692Y194774D01*
X494369Y195658D01*
X492809Y195968D01*
X492809Y195968D01*
X489394D01*
Y197414D01*
D02*
G37*
G36*
X153691Y181820D02*
X152400D01*
Y150550D01*
X183670D01*
Y151841D01*
X182869Y156900D01*
X181286Y161771D01*
X178961Y166335D01*
X175950Y170478D01*
X172328Y174100D01*
X168185Y177111D01*
X163621Y179436D01*
X158750Y181019D01*
X153691Y181820D01*
D02*
G37*
G36*
X149860D02*
X148569D01*
X143510Y181019D01*
X138639Y179436D01*
X134075Y177111D01*
X129932Y174100D01*
X126310Y170478D01*
X123299Y166335D01*
X120974Y161771D01*
X119391Y156900D01*
X118590Y151841D01*
Y150550D01*
X149860D01*
Y181820D01*
D02*
G37*
G36*
X953791D02*
X952500D01*
Y150550D01*
X983770D01*
Y151841D01*
X982969Y156900D01*
X981386Y161771D01*
X979061Y166335D01*
X976050Y170478D01*
X972428Y174100D01*
X968285Y177111D01*
X963721Y179436D01*
X958850Y181019D01*
X953791Y181820D01*
D02*
G37*
G36*
X949960D02*
X948669D01*
X943610Y181019D01*
X938739Y179436D01*
X934175Y177111D01*
X930032Y174100D01*
X926410Y170478D01*
X923399Y166335D01*
X921074Y161771D01*
X919491Y156900D01*
X918690Y151841D01*
Y150550D01*
X949960D01*
Y181820D01*
D02*
G37*
G36*
X716433Y167684D02*
X712740D01*
X709174Y166728D01*
X705976Y164882D01*
X703365Y162271D01*
X701518Y159073D01*
X700563Y155506D01*
Y151814D01*
X701518Y148247D01*
X703365Y145049D01*
X705976Y142438D01*
X709174Y140592D01*
X712740Y139636D01*
X716433D01*
X720000Y140592D01*
X723198Y142438D01*
X725809Y145049D01*
X727655Y148247D01*
X728611Y151814D01*
Y155506D01*
X727655Y159073D01*
X725809Y162271D01*
X723198Y164882D01*
X720000Y166728D01*
X716433Y167684D01*
D02*
G37*
G36*
X576310D02*
X572617D01*
X569050Y166728D01*
X565852Y164882D01*
X563241Y162271D01*
X561395Y159073D01*
X560439Y155506D01*
Y151814D01*
X561395Y148247D01*
X563241Y145049D01*
X565852Y142438D01*
X569050Y140592D01*
X572617Y139636D01*
X576310D01*
X579876Y140592D01*
X583074Y142438D01*
X585685Y145049D01*
X587532Y148247D01*
X588487Y151814D01*
Y155506D01*
X587532Y159073D01*
X585685Y162271D01*
X583074Y164882D01*
X579876Y166728D01*
X576310Y167684D01*
D02*
G37*
G36*
X983770Y148010D02*
X952500D01*
Y116740D01*
X953791D01*
X958850Y117541D01*
X963721Y119124D01*
X968285Y121449D01*
X972428Y124460D01*
X976050Y128082D01*
X979061Y132225D01*
X981386Y136789D01*
X982969Y141660D01*
X983770Y146719D01*
Y148010D01*
D02*
G37*
G36*
X949960D02*
X918690D01*
Y146719D01*
X919491Y141660D01*
X921074Y136789D01*
X923399Y132225D01*
X926410Y128082D01*
X930032Y124460D01*
X934175Y121449D01*
X938739Y119124D01*
X943610Y117541D01*
X948669Y116740D01*
X949960D01*
Y148010D01*
D02*
G37*
G36*
X183670Y148010D02*
X152400D01*
Y116740D01*
X153691D01*
X158750Y117541D01*
X163621Y119124D01*
X168185Y121449D01*
X172328Y124460D01*
X175950Y128082D01*
X178961Y132225D01*
X181286Y136789D01*
X182869Y141660D01*
X183670Y146719D01*
Y148010D01*
D02*
G37*
G36*
X149860D02*
X118590D01*
Y146719D01*
X119391Y141660D01*
X120974Y136789D01*
X123299Y132225D01*
X126310Y128082D01*
X129932Y124460D01*
X134075Y121449D01*
X138639Y119124D01*
X143510Y117541D01*
X148569Y116740D01*
X149860D01*
Y148010D01*
D02*
G37*
%LPD*%
G36*
X628650Y321310D02*
X378820D01*
Y716280D01*
X628650D01*
Y321310D01*
D02*
G37*
%LPC*%
G36*
X577289Y700975D02*
X575733D01*
Y659130D01*
X617578D01*
Y660686D01*
X616841Y666289D01*
X615378Y671749D01*
X613215Y676970D01*
X610389Y681865D01*
X606949Y686349D01*
X602952Y690345D01*
X598468Y693786D01*
X593574Y696612D01*
X588352Y698774D01*
X582893Y700237D01*
X577289Y700975D01*
D02*
G37*
G36*
X573193D02*
X571637D01*
X566034Y700237D01*
X560575Y698774D01*
X555353Y696612D01*
X550459Y693786D01*
X545975Y690345D01*
X541978Y686349D01*
X538538Y681865D01*
X535712Y676970D01*
X533549Y671749D01*
X532086Y666289D01*
X531348Y660686D01*
Y659130D01*
X573193D01*
Y700975D01*
D02*
G37*
G36*
X433536D02*
X431980D01*
Y659130D01*
X473825D01*
Y660686D01*
X473087Y666289D01*
X471625Y671749D01*
X469462Y676970D01*
X466636Y681865D01*
X463195Y686349D01*
X459199Y690345D01*
X454715Y693786D01*
X449820Y696612D01*
X444599Y698774D01*
X439139Y700237D01*
X433536Y700975D01*
D02*
G37*
G36*
X429440D02*
X427884D01*
X422281Y700237D01*
X416822Y698774D01*
X411600Y696612D01*
X406705Y693786D01*
X402221Y690345D01*
X398225Y686349D01*
X394784Y681865D01*
X391958Y676970D01*
X389796Y671749D01*
X388333Y666289D01*
X387595Y660686D01*
Y659130D01*
X429440D01*
Y700975D01*
D02*
G37*
G36*
X617578Y656590D02*
X575733D01*
Y614745D01*
X577289D01*
X582893Y615483D01*
X588352Y616945D01*
X593574Y619108D01*
X598468Y621934D01*
X602952Y625375D01*
X606949Y629371D01*
X610389Y633855D01*
X613215Y638750D01*
X615378Y643971D01*
X616841Y649431D01*
X617578Y655034D01*
Y656590D01*
D02*
G37*
G36*
X573193D02*
X531348D01*
Y655034D01*
X532086Y649431D01*
X533549Y643971D01*
X535712Y638750D01*
X538538Y633855D01*
X541978Y629371D01*
X545975Y625375D01*
X550459Y621934D01*
X555353Y619108D01*
X560575Y616945D01*
X566034Y615483D01*
X571637Y614745D01*
X573193D01*
Y656590D01*
D02*
G37*
G36*
X473825Y656590D02*
X431980D01*
Y614745D01*
X433536D01*
X439139Y615483D01*
X444599Y616945D01*
X449820Y619108D01*
X454715Y621934D01*
X459199Y625375D01*
X463195Y629371D01*
X466636Y633855D01*
X469462Y638750D01*
X471625Y643971D01*
X473087Y649431D01*
X473825Y655034D01*
Y656590D01*
D02*
G37*
G36*
X429440D02*
X387595D01*
Y655034D01*
X388333Y649431D01*
X389796Y643971D01*
X391958Y638750D01*
X394784Y633855D01*
X398225Y629371D01*
X402221Y625375D01*
X406705Y621934D01*
X411600Y619108D01*
X416822Y616945D01*
X422281Y615483D01*
X427884Y614745D01*
X429440D01*
Y656590D01*
D02*
G37*
G36*
X601485Y567309D02*
X601133D01*
Y556260D01*
X612182D01*
Y556612D01*
X611343Y559745D01*
X609721Y562554D01*
X607427Y564848D01*
X604618Y566469D01*
X601485Y567309D01*
D02*
G37*
G36*
X598593D02*
X598242D01*
X595108Y566469D01*
X592299Y564848D01*
X590006Y562554D01*
X588384Y559745D01*
X587544Y556612D01*
Y556260D01*
X598593D01*
Y567309D01*
D02*
G37*
G36*
X550685D02*
X550333D01*
Y556260D01*
X561382D01*
Y556612D01*
X560543Y559745D01*
X558921Y562554D01*
X556627Y564848D01*
X553818Y566469D01*
X550685Y567309D01*
D02*
G37*
G36*
X547793D02*
X547442D01*
X544308Y566469D01*
X541499Y564848D01*
X539206Y562554D01*
X537584Y559745D01*
X536744Y556612D01*
Y556260D01*
X547793D01*
Y567309D01*
D02*
G37*
G36*
X460897D02*
X460545D01*
Y556260D01*
X471594D01*
Y556612D01*
X470755Y559745D01*
X469133Y562554D01*
X466839Y564848D01*
X464030Y566469D01*
X460897Y567309D01*
D02*
G37*
G36*
X458005D02*
X457654D01*
X454520Y566469D01*
X451711Y564848D01*
X449418Y562554D01*
X447796Y559745D01*
X446956Y556612D01*
Y556260D01*
X458005D01*
Y567309D01*
D02*
G37*
G36*
X410097D02*
X409745D01*
Y556260D01*
X420794D01*
Y556612D01*
X419955Y559745D01*
X418333Y562554D01*
X416039Y564848D01*
X413230Y566469D01*
X410097Y567309D01*
D02*
G37*
G36*
X407205D02*
X406853D01*
X403720Y566469D01*
X400911Y564848D01*
X398618Y562554D01*
X396996Y559745D01*
X396156Y556612D01*
Y556260D01*
X407205D01*
Y567309D01*
D02*
G37*
G36*
X612182Y553720D02*
X601133D01*
Y542671D01*
X601485D01*
X604618Y543511D01*
X607427Y545132D01*
X609721Y547426D01*
X611343Y550235D01*
X612182Y553368D01*
Y553720D01*
D02*
G37*
G36*
X598593D02*
X587544D01*
Y553368D01*
X588384Y550235D01*
X590006Y547426D01*
X592299Y545132D01*
X595108Y543511D01*
X598242Y542671D01*
X598593D01*
Y553720D01*
D02*
G37*
G36*
X561382D02*
X550333D01*
Y542671D01*
X550685D01*
X553818Y543511D01*
X556627Y545132D01*
X558921Y547426D01*
X560543Y550235D01*
X561382Y553368D01*
Y553720D01*
D02*
G37*
G36*
X547793D02*
X536744D01*
Y553368D01*
X537584Y550235D01*
X539206Y547426D01*
X541499Y545132D01*
X544308Y543511D01*
X547442Y542671D01*
X547793D01*
Y553720D01*
D02*
G37*
G36*
X471594D02*
X460545D01*
Y542671D01*
X460897D01*
X464030Y543511D01*
X466839Y545132D01*
X469133Y547426D01*
X470755Y550235D01*
X471594Y553368D01*
Y553720D01*
D02*
G37*
G36*
X458005D02*
X446956D01*
Y553368D01*
X447796Y550235D01*
X449418Y547426D01*
X451711Y545132D01*
X454520Y543511D01*
X457654Y542671D01*
X458005D01*
Y553720D01*
D02*
G37*
G36*
X420794D02*
X409745D01*
Y542671D01*
X410097D01*
X413230Y543511D01*
X416039Y545132D01*
X418333Y547426D01*
X419955Y550235D01*
X420794Y553368D01*
Y553720D01*
D02*
G37*
G36*
X407205D02*
X396156D01*
Y553368D01*
X396996Y550235D01*
X398618Y547426D01*
X400911Y545132D01*
X403720Y543511D01*
X406853Y542671D01*
X407205D01*
Y553720D01*
D02*
G37*
G36*
X577289Y483805D02*
X575733D01*
Y441960D01*
X617578D01*
Y443516D01*
X616841Y449119D01*
X615378Y454579D01*
X613215Y459800D01*
X610389Y464695D01*
X606949Y469179D01*
X602952Y473175D01*
X598468Y476616D01*
X593574Y479442D01*
X588352Y481604D01*
X582893Y483067D01*
X577289Y483805D01*
D02*
G37*
G36*
X573193D02*
X571637D01*
X566034Y483067D01*
X560575Y481604D01*
X555353Y479442D01*
X550459Y476616D01*
X545975Y473175D01*
X541978Y469179D01*
X538538Y464695D01*
X535712Y459800D01*
X533549Y454579D01*
X532086Y449119D01*
X531348Y443516D01*
Y441960D01*
X573193D01*
Y483805D01*
D02*
G37*
G36*
X437164D02*
X435609D01*
Y441960D01*
X477454D01*
Y443516D01*
X476716Y449119D01*
X475253Y454579D01*
X473090Y459800D01*
X470264Y464695D01*
X466824Y469179D01*
X462827Y473175D01*
X458343Y476616D01*
X453449Y479442D01*
X448227Y481604D01*
X442768Y483067D01*
X437164Y483805D01*
D02*
G37*
G36*
X433069D02*
X431513D01*
X425909Y483067D01*
X420450Y481604D01*
X415228Y479442D01*
X410334Y476616D01*
X405850Y473175D01*
X401853Y469179D01*
X398413Y464695D01*
X395587Y459800D01*
X393424Y454579D01*
X391961Y449119D01*
X391224Y443516D01*
Y441960D01*
X433069D01*
Y483805D01*
D02*
G37*
G36*
X617578Y439420D02*
X575733D01*
Y397575D01*
X577289D01*
X582893Y398313D01*
X588352Y399776D01*
X593574Y401938D01*
X598468Y404764D01*
X602952Y408205D01*
X606949Y412201D01*
X610389Y416685D01*
X613215Y421580D01*
X615378Y426801D01*
X616841Y432261D01*
X617578Y437864D01*
Y439420D01*
D02*
G37*
G36*
X573193D02*
X531348D01*
Y437864D01*
X532086Y432261D01*
X533549Y426801D01*
X535712Y421580D01*
X538538Y416685D01*
X541978Y412201D01*
X545975Y408205D01*
X550459Y404764D01*
X555353Y401938D01*
X560575Y399776D01*
X566034Y398313D01*
X571637Y397575D01*
X573193D01*
Y439420D01*
D02*
G37*
G36*
X477454Y439420D02*
X435609D01*
Y397575D01*
X437164D01*
X442768Y398313D01*
X448227Y399776D01*
X453449Y401938D01*
X458343Y404764D01*
X462827Y408205D01*
X466824Y412201D01*
X470264Y416685D01*
X473090Y421580D01*
X475253Y426801D01*
X476716Y432261D01*
X477454Y437864D01*
Y439420D01*
D02*
G37*
G36*
X433069D02*
X391224D01*
Y437864D01*
X391961Y432261D01*
X393424Y426801D01*
X395587Y421580D01*
X398413Y416685D01*
X401853Y412201D01*
X405850Y408205D01*
X410334Y404764D01*
X415228Y401938D01*
X420450Y399776D01*
X425909Y398313D01*
X431513Y397575D01*
X433069D01*
Y439420D01*
D02*
G37*
G36*
X601485Y351409D02*
X601133D01*
Y340360D01*
X612182D01*
Y340712D01*
X611343Y343845D01*
X609721Y346654D01*
X607427Y348948D01*
X604618Y350569D01*
X601485Y351409D01*
D02*
G37*
G36*
X598593D02*
X598242D01*
X595108Y350569D01*
X592299Y348948D01*
X590006Y346654D01*
X588384Y343845D01*
X587544Y340712D01*
Y340360D01*
X598593D01*
Y351409D01*
D02*
G37*
G36*
X550685D02*
X550333D01*
Y340360D01*
X561382D01*
Y340712D01*
X560543Y343845D01*
X558921Y346654D01*
X556627Y348948D01*
X553818Y350569D01*
X550685Y351409D01*
D02*
G37*
G36*
X547793D02*
X547442D01*
X544308Y350569D01*
X541499Y348948D01*
X539206Y346654D01*
X537584Y343845D01*
X536744Y340712D01*
Y340360D01*
X547793D01*
Y351409D01*
D02*
G37*
G36*
X460787D02*
X460435D01*
Y340360D01*
X471484D01*
Y340712D01*
X470645Y343845D01*
X469023Y346654D01*
X466730Y348948D01*
X463920Y350569D01*
X460787Y351409D01*
D02*
G37*
G36*
X457896D02*
X457544D01*
X454411Y350569D01*
X451601Y348948D01*
X449308Y346654D01*
X447686Y343845D01*
X446847Y340712D01*
Y340360D01*
X457896D01*
Y351409D01*
D02*
G37*
G36*
X409987D02*
X409636D01*
Y340360D01*
X420685D01*
Y340712D01*
X419845Y343845D01*
X418223Y346654D01*
X415929Y348948D01*
X413120Y350569D01*
X409987Y351409D01*
D02*
G37*
G36*
X407095D02*
X406744D01*
X403610Y350569D01*
X400801Y348948D01*
X398508Y346654D01*
X396886Y343845D01*
X396046Y340712D01*
Y340360D01*
X407095D01*
Y351409D01*
D02*
G37*
G36*
X612182Y337820D02*
X601133D01*
Y326771D01*
X601485D01*
X604618Y327611D01*
X607427Y329232D01*
X609721Y331526D01*
X611343Y334335D01*
X612182Y337468D01*
Y337820D01*
D02*
G37*
G36*
X598593D02*
X587544D01*
Y337468D01*
X588384Y334335D01*
X590006Y331526D01*
X592299Y329232D01*
X595108Y327611D01*
X598242Y326771D01*
X598593D01*
Y337820D01*
D02*
G37*
G36*
X561382D02*
X550333D01*
Y326771D01*
X550685D01*
X553818Y327611D01*
X556627Y329232D01*
X558921Y331526D01*
X560543Y334335D01*
X561382Y337468D01*
Y337820D01*
D02*
G37*
G36*
X547793D02*
X536744D01*
Y337468D01*
X537584Y334335D01*
X539206Y331526D01*
X541499Y329232D01*
X544308Y327611D01*
X547442Y326771D01*
X547793D01*
Y337820D01*
D02*
G37*
G36*
X471484D02*
X460435D01*
Y326771D01*
X460787D01*
X463920Y327611D01*
X466730Y329232D01*
X469023Y331526D01*
X470645Y334335D01*
X471484Y337468D01*
Y337820D01*
D02*
G37*
G36*
X457896D02*
X446847D01*
Y337468D01*
X447686Y334335D01*
X449308Y331526D01*
X451601Y329232D01*
X454411Y327611D01*
X457544Y326771D01*
X457896D01*
Y337820D01*
D02*
G37*
G36*
X420685D02*
X409636D01*
Y326771D01*
X409987D01*
X413120Y327611D01*
X415929Y329232D01*
X418223Y331526D01*
X419845Y334335D01*
X420685Y337468D01*
Y337820D01*
D02*
G37*
G36*
X407095D02*
X396046D01*
Y337468D01*
X396886Y334335D01*
X398508Y331526D01*
X400801Y329232D01*
X403610Y327611D01*
X406744Y326771D01*
X407095D01*
Y337820D01*
D02*
G37*
G36*
X717413Y704785D02*
X715857D01*
Y662940D01*
X757702D01*
Y664496D01*
X756964Y670099D01*
X755501Y675559D01*
X753338Y680780D01*
X750512Y685675D01*
X747072Y690159D01*
X743075Y694155D01*
X738592Y697596D01*
X733697Y700422D01*
X728475Y702585D01*
X723016Y704047D01*
X717413Y704785D01*
D02*
G37*
G36*
X857536D02*
X855980D01*
Y662940D01*
X897825D01*
Y664496D01*
X897087Y670099D01*
X895624Y675559D01*
X893462Y680780D01*
X890636Y685675D01*
X887195Y690159D01*
X883199Y694155D01*
X878715Y697596D01*
X873820Y700422D01*
X868599Y702585D01*
X863139Y704047D01*
X857536Y704785D01*
D02*
G37*
G36*
X713317D02*
X711761D01*
X706157Y704047D01*
X700698Y702585D01*
X695477Y700422D01*
X690582Y697596D01*
X686098Y694155D01*
X682102Y690159D01*
X678661Y685675D01*
X675835Y680780D01*
X673672Y675559D01*
X672209Y670099D01*
X671472Y664496D01*
Y662940D01*
X713317D01*
Y704785D01*
D02*
G37*
G36*
X853440D02*
X851884D01*
X846281Y704047D01*
X840821Y702585D01*
X835600Y700422D01*
X830705Y697596D01*
X826221Y694155D01*
X822225Y690159D01*
X818784Y685675D01*
X815958Y680780D01*
X813795Y675559D01*
X812333Y670099D01*
X811595Y664496D01*
Y662940D01*
X853440D01*
Y704785D01*
D02*
G37*
G36*
X897825Y660400D02*
X855980D01*
Y618555D01*
X857536D01*
X863139Y619293D01*
X868599Y620756D01*
X873820Y622918D01*
X878715Y625744D01*
X883199Y629185D01*
X887195Y633181D01*
X890636Y637665D01*
X893462Y642560D01*
X895624Y647781D01*
X897087Y653241D01*
X897825Y658844D01*
Y660400D01*
D02*
G37*
G36*
X853440D02*
X811595D01*
Y658844D01*
X812333Y653241D01*
X813795Y647781D01*
X815958Y642560D01*
X818784Y637665D01*
X822225Y633181D01*
X826221Y629185D01*
X830705Y625744D01*
X835600Y622918D01*
X840821Y620756D01*
X846281Y619293D01*
X851884Y618555D01*
X853440D01*
Y660400D01*
D02*
G37*
G36*
X757702D02*
X715857D01*
Y618555D01*
X717413D01*
X723016Y619293D01*
X728475Y620756D01*
X733697Y622918D01*
X738592Y625744D01*
X743075Y629185D01*
X747072Y633181D01*
X750512Y637665D01*
X753338Y642560D01*
X755501Y647781D01*
X756964Y653241D01*
X757702Y658844D01*
Y660400D01*
D02*
G37*
G36*
X713317D02*
X671472D01*
Y658844D01*
X672209Y653241D01*
X673672Y647781D01*
X675835Y642560D01*
X678661Y637665D01*
X682102Y633181D01*
X686098Y629185D01*
X690582Y625744D01*
X695477Y622918D01*
X700698Y620756D01*
X706157Y619293D01*
X711761Y618555D01*
X713317D01*
Y660400D01*
D02*
G37*
G36*
X881732Y567309D02*
X881380D01*
Y556260D01*
X892429D01*
Y556612D01*
X891590Y559745D01*
X889968Y562554D01*
X887674Y564848D01*
X884865Y566469D01*
X881732Y567309D01*
D02*
G37*
G36*
X878840D02*
X878488D01*
X875355Y566469D01*
X872546Y564848D01*
X870252Y562554D01*
X868631Y559745D01*
X867791Y556612D01*
Y556260D01*
X878840D01*
Y567309D01*
D02*
G37*
G36*
X830932D02*
X830580D01*
Y556260D01*
X841629D01*
Y556612D01*
X840789Y559745D01*
X839168Y562554D01*
X836874Y564848D01*
X834065Y566469D01*
X830932Y567309D01*
D02*
G37*
G36*
X828040D02*
X827688D01*
X824555Y566469D01*
X821746Y564848D01*
X819452Y562554D01*
X817831Y559745D01*
X816991Y556612D01*
Y556260D01*
X828040D01*
Y567309D01*
D02*
G37*
G36*
X741609D02*
X741257D01*
Y556260D01*
X752306D01*
Y556612D01*
X751466Y559745D01*
X749844Y562554D01*
X747551Y564848D01*
X744742Y566469D01*
X741609Y567309D01*
D02*
G37*
G36*
X738717D02*
X738365D01*
X735232Y566469D01*
X732423Y564848D01*
X730129Y562554D01*
X728507Y559745D01*
X727668Y556612D01*
Y556260D01*
X738717D01*
Y567309D01*
D02*
G37*
G36*
X690808D02*
X690457D01*
Y556260D01*
X701506D01*
Y556612D01*
X700666Y559745D01*
X699044Y562554D01*
X696751Y564848D01*
X693942Y566469D01*
X690808Y567309D01*
D02*
G37*
G36*
X687917D02*
X687565D01*
X684432Y566469D01*
X681623Y564848D01*
X679329Y562554D01*
X677707Y559745D01*
X676868Y556612D01*
Y556260D01*
X687917D01*
Y567309D01*
D02*
G37*
G36*
X892429Y553720D02*
X881380D01*
Y542671D01*
X881732D01*
X884865Y543511D01*
X887674Y545132D01*
X889968Y547426D01*
X891590Y550235D01*
X892429Y553368D01*
Y553720D01*
D02*
G37*
G36*
X878840D02*
X867791D01*
Y553368D01*
X868631Y550235D01*
X870252Y547426D01*
X872546Y545132D01*
X875355Y543511D01*
X878488Y542671D01*
X878840D01*
Y553720D01*
D02*
G37*
G36*
X841629D02*
X830580D01*
Y542671D01*
X830932D01*
X834065Y543511D01*
X836874Y545132D01*
X839168Y547426D01*
X840789Y550235D01*
X841629Y553368D01*
Y553720D01*
D02*
G37*
G36*
X828040D02*
X816991D01*
Y553368D01*
X817831Y550235D01*
X819452Y547426D01*
X821746Y545132D01*
X824555Y543511D01*
X827688Y542671D01*
X828040D01*
Y553720D01*
D02*
G37*
G36*
X752306D02*
X741257D01*
Y542671D01*
X741609D01*
X744742Y543511D01*
X747551Y545132D01*
X749844Y547426D01*
X751466Y550235D01*
X752306Y553368D01*
Y553720D01*
D02*
G37*
G36*
X738717D02*
X727668D01*
Y553368D01*
X728507Y550235D01*
X730129Y547426D01*
X732423Y545132D01*
X735232Y543511D01*
X738365Y542671D01*
X738717D01*
Y553720D01*
D02*
G37*
G36*
X701506D02*
X690457D01*
Y542671D01*
X690808D01*
X693942Y543511D01*
X696751Y545132D01*
X699044Y547426D01*
X700666Y550235D01*
X701506Y553368D01*
Y553720D01*
D02*
G37*
G36*
X687917D02*
X676868D01*
Y553368D01*
X677707Y550235D01*
X679329Y547426D01*
X681623Y545132D01*
X684432Y543511D01*
X687565Y542671D01*
X687917D01*
Y553720D01*
D02*
G37*
G36*
X857536Y487615D02*
X855980D01*
Y445770D01*
X897825D01*
Y447326D01*
X897087Y452929D01*
X895624Y458389D01*
X893462Y463610D01*
X890636Y468505D01*
X887195Y472989D01*
X883199Y476985D01*
X878715Y480426D01*
X873820Y483252D01*
X868599Y485415D01*
X863139Y486877D01*
X857536Y487615D01*
D02*
G37*
G36*
X717413D02*
X715857D01*
Y445770D01*
X757702D01*
Y447326D01*
X756964Y452929D01*
X755501Y458389D01*
X753338Y463610D01*
X750512Y468505D01*
X747072Y472989D01*
X743075Y476985D01*
X738592Y480426D01*
X733697Y483252D01*
X728475Y485415D01*
X723016Y486877D01*
X717413Y487615D01*
D02*
G37*
G36*
X713317D02*
X711761D01*
X706157Y486877D01*
X700698Y485415D01*
X695477Y483252D01*
X690582Y480426D01*
X686098Y476985D01*
X682102Y472989D01*
X678661Y468505D01*
X675835Y463610D01*
X673672Y458389D01*
X672209Y452929D01*
X671472Y447326D01*
Y445770D01*
X713317D01*
Y487615D01*
D02*
G37*
G36*
X853440D02*
X851884D01*
X846281Y486877D01*
X840821Y485415D01*
X835600Y483252D01*
X830705Y480426D01*
X826221Y476985D01*
X822225Y472989D01*
X818784Y468505D01*
X815958Y463610D01*
X813795Y458389D01*
X812333Y452929D01*
X811595Y447326D01*
Y445770D01*
X853440D01*
Y487615D01*
D02*
G37*
G36*
X897825Y443230D02*
X855980D01*
Y401385D01*
X857536D01*
X863139Y402123D01*
X868599Y403586D01*
X873820Y405748D01*
X878715Y408574D01*
X883199Y412015D01*
X887195Y416011D01*
X890636Y420495D01*
X893462Y425390D01*
X895624Y430611D01*
X897087Y436071D01*
X897825Y441674D01*
Y443230D01*
D02*
G37*
G36*
X853440D02*
X811595D01*
Y441674D01*
X812333Y436071D01*
X813795Y430611D01*
X815958Y425390D01*
X818784Y420495D01*
X822225Y416011D01*
X826221Y412015D01*
X830705Y408574D01*
X835600Y405748D01*
X840821Y403586D01*
X846281Y402123D01*
X851884Y401385D01*
X853440D01*
Y443230D01*
D02*
G37*
G36*
X757702D02*
X715857D01*
Y401385D01*
X717413D01*
X723016Y402123D01*
X728475Y403586D01*
X733697Y405748D01*
X738592Y408574D01*
X743075Y412015D01*
X747072Y416011D01*
X750512Y420495D01*
X753338Y425390D01*
X755501Y430611D01*
X756964Y436071D01*
X757702Y441674D01*
Y443230D01*
D02*
G37*
G36*
X713317D02*
X671472D01*
Y441674D01*
X672209Y436071D01*
X673672Y430611D01*
X675835Y425390D01*
X678661Y420495D01*
X682102Y416011D01*
X686098Y412015D01*
X690582Y408574D01*
X695477Y405748D01*
X700698Y403586D01*
X706157Y402123D01*
X711761Y401385D01*
X713317D01*
Y443230D01*
D02*
G37*
G36*
X881732Y351409D02*
X881380D01*
Y340360D01*
X892429D01*
Y340712D01*
X891590Y343845D01*
X889968Y346654D01*
X887674Y348948D01*
X884865Y350569D01*
X881732Y351409D01*
D02*
G37*
G36*
X878840D02*
X878488D01*
X875355Y350569D01*
X872546Y348948D01*
X870252Y346654D01*
X868631Y343845D01*
X867791Y340712D01*
Y340360D01*
X878840D01*
Y351409D01*
D02*
G37*
G36*
X830932D02*
X830580D01*
Y340360D01*
X841629D01*
Y340712D01*
X840789Y343845D01*
X839168Y346654D01*
X836874Y348948D01*
X834065Y350569D01*
X830932Y351409D01*
D02*
G37*
G36*
X828040D02*
X827688D01*
X824555Y350569D01*
X821746Y348948D01*
X819452Y346654D01*
X817831Y343845D01*
X816991Y340712D01*
Y340360D01*
X828040D01*
Y351409D01*
D02*
G37*
G36*
X741609D02*
X741257D01*
Y340360D01*
X752306D01*
Y340712D01*
X751466Y343845D01*
X749844Y346654D01*
X747551Y348948D01*
X744742Y350569D01*
X741609Y351409D01*
D02*
G37*
G36*
X738717D02*
X738365D01*
X735232Y350569D01*
X732423Y348948D01*
X730129Y346654D01*
X728507Y343845D01*
X727668Y340712D01*
Y340360D01*
X738717D01*
Y351409D01*
D02*
G37*
G36*
X690808D02*
X690457D01*
Y340360D01*
X701506D01*
Y340712D01*
X700666Y343845D01*
X699044Y346654D01*
X696751Y348948D01*
X693942Y350569D01*
X690808Y351409D01*
D02*
G37*
G36*
X687917D02*
X687565D01*
X684432Y350569D01*
X681623Y348948D01*
X679329Y346654D01*
X677707Y343845D01*
X676868Y340712D01*
Y340360D01*
X687917D01*
Y351409D01*
D02*
G37*
G36*
X892429Y337820D02*
X881380D01*
Y326771D01*
X881732D01*
X884865Y327611D01*
X887674Y329232D01*
X889968Y331526D01*
X891590Y334335D01*
X892429Y337468D01*
Y337820D01*
D02*
G37*
G36*
X878840D02*
X867791D01*
Y337468D01*
X868631Y334335D01*
X870252Y331526D01*
X872546Y329232D01*
X875355Y327611D01*
X878488Y326771D01*
X878840D01*
Y337820D01*
D02*
G37*
G36*
X841629D02*
X830580D01*
Y326771D01*
X830932D01*
X834065Y327611D01*
X836874Y329232D01*
X839168Y331526D01*
X840789Y334335D01*
X841629Y337468D01*
Y337820D01*
D02*
G37*
G36*
X828040D02*
X816991D01*
Y337468D01*
X817831Y334335D01*
X819452Y331526D01*
X821746Y329232D01*
X824555Y327611D01*
X827688Y326771D01*
X828040D01*
Y337820D01*
D02*
G37*
G36*
X752306D02*
X741257D01*
Y326771D01*
X741609D01*
X744742Y327611D01*
X747551Y329232D01*
X749844Y331526D01*
X751466Y334335D01*
X752306Y337468D01*
Y337820D01*
D02*
G37*
G36*
X738717D02*
X727668D01*
Y337468D01*
X728507Y334335D01*
X730129Y331526D01*
X732423Y329232D01*
X735232Y327611D01*
X738365Y326771D01*
X738717D01*
Y337820D01*
D02*
G37*
G36*
X701506D02*
X690457D01*
Y326771D01*
X690808D01*
X693942Y327611D01*
X696751Y329232D01*
X699044Y331526D01*
X700666Y334335D01*
X701506Y337468D01*
Y337820D01*
D02*
G37*
G36*
X687917D02*
X676868D01*
Y337468D01*
X677707Y334335D01*
X679329Y331526D01*
X681623Y329232D01*
X684432Y327611D01*
X687565Y326771D01*
X687917D01*
Y337820D01*
D02*
G37*
%LPD*%
D15*
X396240Y785370D02*
D03*
Y766570D02*
D03*
X886461Y766560D02*
D03*
Y785360D02*
D03*
X680720Y767840D02*
D03*
Y786640D02*
D03*
X606600Y767840D02*
D03*
Y786640D02*
D03*
D16*
X483870Y206890D02*
D03*
Y191890D02*
D03*
X883111Y804020D02*
D03*
Y819020D02*
D03*
X683776Y805300D02*
D03*
Y820300D02*
D03*
X603250Y805300D02*
D03*
Y820300D02*
D03*
X394454Y802760D02*
D03*
Y817760D02*
D03*
X805180Y206890D02*
D03*
Y191890D02*
D03*
D21*
X204470Y686689D02*
D03*
Y635889D02*
D03*
X599863Y554990D02*
D03*
X549063D02*
D03*
X459275D02*
D03*
X599863Y339090D02*
D03*
X549063D02*
D03*
X459165D02*
D03*
X408475Y554990D02*
D03*
X408366Y339090D02*
D03*
X829310D02*
D03*
X880110D02*
D03*
X689187D02*
D03*
X739987D02*
D03*
X829310Y554990D02*
D03*
X880110D02*
D03*
X689187D02*
D03*
X739987D02*
D03*
X203200Y276479D02*
D03*
Y327279D02*
D03*
X205740Y396282D02*
D03*
Y447082D02*
D03*
X204470Y516086D02*
D03*
Y566886D02*
D03*
D26*
X393700Y766570D02*
X395850D01*
X396350Y767070D01*
X445770D01*
X805180Y171450D02*
Y191890D01*
X553470Y819160D02*
X557529D01*
X574463Y657860D02*
Y677113D01*
Y580390D02*
Y657860D01*
X549063Y554990D02*
X574463Y580390D01*
X549063Y554990D02*
X599863D01*
X445769Y814070D02*
X548380D01*
X553470Y819160D01*
X445769Y814070D02*
X469900Y789939D01*
Y697050D02*
Y789939D01*
X599863Y485343D02*
Y554990D01*
X574463Y364490D02*
Y440690D01*
Y459943D02*
X599863Y485343D01*
X574463Y364490D02*
X599863Y339090D01*
X549063D02*
X599863D01*
X574463Y440690D02*
Y459943D01*
X459275Y484880D02*
Y554990D01*
X430710Y657860D02*
X469900Y697050D01*
X434339Y459943D02*
X459275Y484880D01*
X408475Y554990D02*
X459275D01*
X408366Y339090D02*
X459165D01*
X434339Y363917D02*
X459165Y339090D01*
X430710Y577225D02*
Y657860D01*
X434339Y440690D02*
Y459943D01*
X408475Y554990D02*
X430710Y577225D01*
X434339Y363917D02*
Y440690D01*
X665480Y914400D02*
X708819Y871061D01*
Y766731D02*
Y871061D01*
X555484Y914400D02*
X665480D01*
X837241Y766760D02*
X858520D01*
X836931Y767070D02*
X858520Y788659D01*
X836931Y767070D02*
X837241Y766760D01*
X858520Y788659D02*
Y848947D01*
Y766760D02*
X884991D01*
X858520Y848947D02*
X889994Y880421D01*
X651794Y722646D02*
X888453D01*
X606600Y767840D02*
X651794Y722646D01*
X558300Y767840D02*
X606600D01*
X557530Y767070D02*
X558300Y767840D01*
X889994Y880421D02*
Y964787D01*
X875220Y979561D02*
X889994Y964787D01*
X875220Y979561D02*
Y981320D01*
X854710Y580390D02*
Y661670D01*
X829310Y554990D02*
X880110D01*
X829310D02*
X854710Y580390D01*
X836925Y814075D02*
X836930Y814070D01*
X739987Y489153D02*
Y554990D01*
X880110Y489153D02*
Y554990D01*
X854710Y463753D02*
X880110Y489153D01*
X854710Y364490D02*
X880110Y339090D01*
X829310D02*
X880110D01*
X854710Y444500D02*
Y463753D01*
Y364490D02*
Y444500D01*
X739987Y339090D02*
X829310D01*
X739987Y226061D02*
Y339090D01*
X714587Y463753D02*
X739987Y489153D01*
X714587Y580390D02*
Y661670D01*
X689187Y554990D02*
X714587Y580390D01*
X689187Y554990D02*
X739987D01*
X714587Y444500D02*
Y463753D01*
Y364490D02*
X739987Y339090D01*
X714586Y200660D02*
X739987Y226061D01*
X714587Y364490D02*
Y444500D01*
X689187Y339090D02*
X739987D01*
X546264Y923620D02*
X555484Y914400D01*
X545020Y930530D02*
X546264Y929286D01*
Y923620D02*
Y929286D01*
X545020Y930530D02*
Y955930D01*
X729690Y767640D02*
X730250Y767080D01*
X680920Y767640D02*
X729690D01*
X680720Y767840D02*
X680920Y767640D01*
X708819Y792131D02*
X727520Y773430D01*
X925830Y1006390D02*
Y1006530D01*
X805180Y171450D02*
X827350Y149280D01*
X951230D01*
X646863Y175260D02*
X801370D01*
X574463Y247660D02*
X646863Y175260D01*
X805180Y171450D02*
X805180Y171450D01*
X801370Y175260D02*
X805180Y171450D01*
X295910Y415713D02*
Y535517D01*
Y655320D01*
Y295910D02*
Y415713D01*
X276657Y295910D02*
X295910D01*
X204470Y566886D02*
Y635889D01*
Y516086D02*
Y566886D01*
Y635889D02*
Y686689D01*
Y516086D02*
X205105Y515451D01*
X189230Y701929D02*
X204470Y686689D01*
X189230Y701929D02*
Y1006530D01*
X205105Y447717D02*
X205740Y447082D01*
Y396282D02*
Y447082D01*
X205105Y447717D02*
Y515451D01*
X204470Y395012D02*
X205740Y396282D01*
X204470Y328549D02*
Y395012D01*
X203200Y327279D02*
X204470Y328549D01*
X344160Y247660D02*
X574463D01*
X295910Y295910D02*
X344160Y247660D01*
X257226Y276479D02*
X276657Y295910D01*
X203200Y276479D02*
X257226D01*
X203200D02*
Y327279D01*
X834774Y1043054D02*
X973706D01*
X824420Y1006720D02*
Y1032700D01*
X834774Y1043054D01*
X978392Y963930D02*
X984250Y969788D01*
Y1032510D01*
X973706Y1043054D02*
X984250Y1032510D01*
X913908Y963930D02*
X978392D01*
X908050Y742243D02*
Y958072D01*
X913908Y963930D01*
X888453Y722646D02*
X908050Y742243D01*
D27*
X353060Y152400D02*
X526203D01*
X574463Y200660D01*
X497335Y187364D02*
X498146D01*
X492809Y191890D02*
X497335Y187364D01*
X483870Y191890D02*
X492809D01*
X472440Y214630D02*
X473014Y214056D01*
X476704D01*
X483870Y206890D01*
X872721Y819251D02*
X885713D01*
X332740Y817880D02*
X394454D01*
X884889Y785360D02*
X886461D01*
X881189Y789060D02*
X884889Y785360D01*
X881189Y789060D02*
Y802098D01*
X883111Y804020D01*
X303530Y788670D02*
X332740Y817880D01*
X303530Y662940D02*
Y788670D01*
X957580Y869370D02*
Y889000D01*
X406288Y829594D02*
X593956D01*
X603250Y820300D01*
X603885Y819665D02*
X680839D01*
X681474Y819030D01*
X603250Y820300D02*
X603885Y819665D01*
X394454Y817760D02*
X406288Y829594D01*
X295910Y655320D02*
X303530Y662940D01*
X680720Y786640D02*
X683776Y789696D01*
Y805300D01*
X603250Y789990D02*
X606600Y786640D01*
X603250Y789990D02*
Y805300D01*
X393700Y785370D02*
X394454Y786124D01*
Y802760D01*
X793750Y206890D02*
X805180D01*
D28*
X714587Y153660D02*
D03*
X574463D02*
D03*
X557529Y814070D02*
D03*
X445769D02*
D03*
X836931Y767070D02*
D03*
X836930Y814070D02*
D03*
X836931Y861070D02*
D03*
X714586Y200660D02*
D03*
X730249Y814080D02*
D03*
X574463Y200660D02*
D03*
X574463Y247660D02*
D03*
X714587D02*
D03*
X730250Y767080D02*
D03*
Y861080D02*
D03*
X557530Y767070D02*
D03*
Y861070D02*
D03*
X445770Y767070D02*
D03*
Y861070D02*
D03*
D29*
X957580Y773430D02*
D03*
X854710Y444500D02*
D03*
X574463Y440690D02*
D03*
X434339D02*
D03*
X295910Y535517D02*
D03*
Y415713D02*
D03*
Y295910D02*
D03*
X574463Y657860D02*
D03*
X430710D02*
D03*
X714587Y444500D02*
D03*
X854710Y661670D02*
D03*
X714587D02*
D03*
X957580Y889000D02*
D03*
X295910Y655320D02*
D03*
D30*
X875220Y981320D02*
D03*
Y1006720D02*
D03*
X722820D02*
D03*
Y981320D02*
D03*
X468820Y1006720D02*
D03*
X316420D02*
D03*
X468820Y981320D02*
D03*
X316420D02*
D03*
X849820Y1006720D02*
D03*
X824420D02*
D03*
X849820Y981320D02*
D03*
X824420D02*
D03*
X773620Y1006720D02*
D03*
X748220D02*
D03*
X773620Y981320D02*
D03*
X748220D02*
D03*
X672020Y1006720D02*
D03*
X646620D02*
D03*
X672020Y981320D02*
D03*
X646620D02*
D03*
X621220Y1006720D02*
D03*
X570420D02*
D03*
X621220Y981320D02*
D03*
X570420D02*
D03*
X545020Y1006720D02*
D03*
X519620D02*
D03*
X545020Y981320D02*
D03*
X519620D02*
D03*
X443420Y1006720D02*
D03*
X418020D02*
D03*
X443420Y981320D02*
D03*
X418020D02*
D03*
X367220Y1006720D02*
D03*
X341820D02*
D03*
X367220Y981320D02*
D03*
X341820D02*
D03*
X265620Y1006720D02*
D03*
X240220D02*
D03*
X265620Y981320D02*
D03*
X240220D02*
D03*
X799020Y1006720D02*
D03*
Y981320D02*
D03*
X697420Y1006720D02*
D03*
Y981320D02*
D03*
X595820Y1006720D02*
D03*
Y981320D02*
D03*
X494220Y1006720D02*
D03*
Y981320D02*
D03*
X392620Y1006720D02*
D03*
Y981320D02*
D03*
X291020Y1006720D02*
D03*
Y981320D02*
D03*
X875220Y955930D02*
D03*
X722820D02*
D03*
X875220Y930530D02*
D03*
X722820D02*
D03*
X468820Y955930D02*
D03*
X316420D02*
D03*
X468820Y930530D02*
D03*
X316420D02*
D03*
X849820Y955930D02*
D03*
X824420D02*
D03*
X849820Y930530D02*
D03*
X824420D02*
D03*
X773620Y955930D02*
D03*
X748220D02*
D03*
X773620Y930530D02*
D03*
X748220D02*
D03*
X672020Y955930D02*
D03*
X646620D02*
D03*
X672020Y930530D02*
D03*
X646620D02*
D03*
X621220Y955930D02*
D03*
X570420D02*
D03*
X621220Y930530D02*
D03*
X570420D02*
D03*
X545020Y955930D02*
D03*
X519620D02*
D03*
X545020Y930530D02*
D03*
X519620D02*
D03*
X443420Y955930D02*
D03*
X418020D02*
D03*
X443420Y930530D02*
D03*
X418020D02*
D03*
X367220Y955930D02*
D03*
X341820D02*
D03*
X367220Y930530D02*
D03*
X341820D02*
D03*
X265620Y955930D02*
D03*
X240220D02*
D03*
X265620Y930530D02*
D03*
X240220D02*
D03*
X799020Y955930D02*
D03*
Y930530D02*
D03*
X697420Y955930D02*
D03*
Y930530D02*
D03*
X595820Y955930D02*
D03*
Y930530D02*
D03*
X494220Y955930D02*
D03*
Y930530D02*
D03*
X392620Y955930D02*
D03*
Y930530D02*
D03*
X291020Y955930D02*
D03*
Y930530D02*
D03*
D31*
X925830Y1006530D02*
D03*
X951230Y149280D02*
D03*
X189230Y1006530D02*
D03*
X151130Y149280D02*
D03*
D32*
X353060Y152400D02*
D03*
D33*
X498146Y187364D02*
D03*
X472440Y214630D02*
D03*
X872490Y819483D02*
D03*
X793750Y206890D02*
D03*
M02*
