G04*
G04 #@! TF.GenerationSoftware,Altium Limited,Altium Designer,26.6.0 (10)*
G04*
G04 Layer_Color=32896*
G04 Board_Origin=0|0*
%FSLAX44Y44*%
%MOMM*%
G71*
G04*
G04 #@! TF.SameCoordinates,77C13DDD-3119-4C89-82F0-60C0F8CB9652*
G04*
G04*
G04 #@! TF.FilePolarity,Positive*
G04*
G01*
G75*
%ADD11C,0.2000*%
%ADD12C,0.1524*%
%ADD13C,0.2540*%
%ADD14C,0.1270*%
%ADD46C,0.1800*%
D11*
X907290Y833374D02*
G03*
X907290Y833374I-254J0D01*
G01*
X377952Y173228D02*
G03*
X377952Y173228I-254J0D01*
G01*
X526144Y215390D02*
G03*
X526144Y215390I-254J0D01*
G01*
X868202Y847486D02*
X861538D01*
X859872Y849152D01*
Y852485D01*
X861538Y854151D01*
X868202D01*
X869868Y852485D01*
Y849152D01*
X866536Y850818D02*
X869868Y847486D01*
Y849152D02*
X868202Y847486D01*
X861538Y844154D02*
X859872Y842488D01*
Y839155D01*
X861538Y837489D01*
X863204D01*
X864870Y839155D01*
Y840822D01*
Y839155D01*
X866536Y837489D01*
X868202D01*
X869868Y839155D01*
Y842488D01*
X868202Y844154D01*
X788029Y219792D02*
Y229788D01*
X783031D01*
X781365Y228122D01*
Y224790D01*
X783031Y223124D01*
X788029D01*
X784697D02*
X781365Y219792D01*
X778032Y228122D02*
X776366Y229788D01*
X773034D01*
X771368Y228122D01*
Y226456D01*
X773034Y224790D01*
X774700D01*
X773034D01*
X771368Y223124D01*
Y221458D01*
X773034Y219792D01*
X776366D01*
X778032Y221458D01*
X763037Y219792D02*
Y229788D01*
X768036Y224790D01*
X761371D01*
X497199Y243922D02*
Y253918D01*
X492201D01*
X490535Y252252D01*
Y248920D01*
X492201Y247254D01*
X497199D01*
X493867D02*
X490535Y243922D01*
X487202Y252252D02*
X485536Y253918D01*
X482204D01*
X480538Y252252D01*
Y250586D01*
X482204Y248920D01*
X483870D01*
X482204D01*
X480538Y247254D01*
Y245588D01*
X482204Y243922D01*
X485536D01*
X487202Y245588D01*
X470541Y243922D02*
X477206D01*
X470541Y250586D01*
Y252252D01*
X472207Y253918D01*
X475539D01*
X477206Y252252D01*
X533633Y243922D02*
Y253918D01*
X528634D01*
X526968Y252252D01*
Y248920D01*
X528634Y247254D01*
X533633D01*
X530301D02*
X526968Y243922D01*
X523636Y252252D02*
X521970Y253918D01*
X518638D01*
X516972Y252252D01*
Y250586D01*
X518638Y248920D01*
X520304D01*
X518638D01*
X516972Y247254D01*
Y245588D01*
X518638Y243922D01*
X521970D01*
X523636Y245588D01*
X513639Y243922D02*
X510307D01*
X511973D01*
Y253918D01*
X513639Y252252D01*
X363138Y134061D02*
X353142D01*
Y129062D01*
X354808Y127396D01*
X358140D01*
X359806Y129062D01*
Y134061D01*
Y130728D02*
X363138Y127396D01*
Y117399D02*
Y124064D01*
X356474Y117399D01*
X354808D01*
X353142Y119065D01*
Y122398D01*
X354808Y124064D01*
X419578Y197246D02*
X417912Y198912D01*
Y202244D01*
X419578Y203911D01*
X426242D01*
X427908Y202244D01*
Y198912D01*
X426242Y197246D01*
X427908Y187249D02*
Y193914D01*
X421244Y187249D01*
X419578D01*
X417912Y188915D01*
Y192248D01*
X419578Y193914D01*
X353374Y241218D02*
Y231222D01*
X346710D01*
X343378D02*
X340046D01*
X341712D01*
Y241218D01*
X343378Y239552D01*
X462758Y198516D02*
X461092Y200182D01*
Y203514D01*
X462758Y205181D01*
X469422D01*
X471088Y203514D01*
Y200182D01*
X469422Y198516D01*
X461092Y188519D02*
X462758Y191852D01*
X466090Y195184D01*
X469422D01*
X471088Y193518D01*
Y190185D01*
X469422Y188519D01*
X467756D01*
X466090Y190185D01*
Y195184D01*
X898906Y905764D02*
Y915761D01*
X893908D01*
X892242Y914095D01*
Y910762D01*
X893908Y909096D01*
X898906D01*
X895574D02*
X892242Y905764D01*
X888909Y915761D02*
X882245D01*
Y914095D01*
X888909Y907430D01*
Y905764D01*
X778032Y851419D02*
X779698Y849752D01*
Y846420D01*
X778032Y844754D01*
X771368D01*
X769702Y846420D01*
Y849752D01*
X771368Y851419D01*
X769702Y854751D02*
Y858083D01*
Y856417D01*
X779698D01*
X778032Y854751D01*
Y863082D02*
X779698Y864748D01*
Y868080D01*
X778032Y869746D01*
X771368D01*
X769702Y868080D01*
Y864748D01*
X771368Y863082D01*
X778032D01*
X800892Y851774D02*
X802558Y850108D01*
Y846776D01*
X800892Y845109D01*
X794228D01*
X792562Y846776D01*
Y850108D01*
X794228Y851774D01*
Y855106D02*
X792562Y856772D01*
Y860105D01*
X794228Y861771D01*
X800892D01*
X802558Y860105D01*
Y856772D01*
X800892Y855106D01*
X799226D01*
X797560Y856772D01*
Y861771D01*
X341548Y158109D02*
X331552D01*
Y153111D01*
X333218Y151445D01*
X336550D01*
X338216Y153111D01*
Y158109D01*
Y154777D02*
X341548Y151445D01*
Y143114D02*
X331552D01*
X336550Y148112D01*
Y141448D01*
X341548Y131451D02*
Y138116D01*
X334884Y131451D01*
X333218D01*
X331552Y133117D01*
Y136449D01*
X333218Y138116D01*
X404174Y135972D02*
Y145968D01*
X399176D01*
X397510Y144302D01*
Y140970D01*
X399176Y139304D01*
X404174D01*
X400842D02*
X397510Y135972D01*
X394178D02*
X390845D01*
X392512D01*
Y145968D01*
X394178Y144302D01*
X516890Y169388D02*
Y176052D01*
X518556Y177718D01*
X521888D01*
X523554Y176052D01*
Y169388D01*
X521888Y167722D01*
X518556D01*
X520222Y171054D02*
X516890Y167722D01*
X518556D02*
X516890Y169388D01*
X513558Y167722D02*
X510225D01*
X511892D01*
Y177718D01*
X513558Y176052D01*
X442438Y198516D02*
X440772Y200182D01*
Y203514D01*
X442438Y205181D01*
X449102D01*
X450768Y203514D01*
Y200182D01*
X449102Y198516D01*
X440772Y188519D02*
Y195184D01*
X445770D01*
X444104Y191852D01*
Y190185D01*
X445770Y188519D01*
X449102D01*
X450768Y190185D01*
Y193518D01*
X449102Y195184D01*
X363616Y284002D02*
X365282Y285668D01*
X368615D01*
X370281Y284002D01*
Y277338D01*
X368615Y275672D01*
X365282D01*
X363616Y277338D01*
X355285Y275672D02*
Y285668D01*
X360284Y280670D01*
X353619D01*
X363616Y263682D02*
X365282Y265348D01*
X368615D01*
X370281Y263682D01*
Y257018D01*
X368615Y255352D01*
X365282D01*
X363616Y257018D01*
X360284Y263682D02*
X358618Y265348D01*
X355285D01*
X353619Y263682D01*
Y262016D01*
X355285Y260350D01*
X356952D01*
X355285D01*
X353619Y258684D01*
Y257018D01*
X355285Y255352D01*
X358618D01*
X360284Y257018D01*
D12*
X412496Y226060D02*
G03*
X412496Y226060I-762J0D01*
G01*
X376710Y241300D02*
X387831D01*
X376710Y210820D02*
X387831D01*
D13*
X353020Y138185D02*
X358100Y143265D01*
X363180Y138185D01*
X897887Y806448D02*
X887730D01*
X892808D01*
Y791212D01*
X882652D02*
X877573D01*
X880112D01*
Y806448D01*
X882652Y803908D01*
D14*
X906550Y843080D02*
Y849780D01*
X898250D02*
X906550D01*
X877550Y843080D02*
Y849780D01*
X885850D01*
X771160Y199690D02*
X773160D01*
X771160Y214090D02*
X773160D01*
X480330Y222670D02*
X482330D01*
X480330Y237070D02*
X482330D01*
X517160Y222670D02*
X519160D01*
X517160Y237070D02*
X519160D01*
X365340Y176800D02*
Y178800D01*
X350940Y176800D02*
Y178800D01*
X415960Y165100D02*
Y170180D01*
X430360Y165100D02*
Y170180D01*
X382651Y172466D02*
X399669D01*
X382651Y203454D02*
X399669D01*
X473290Y165100D02*
Y170180D01*
X458890Y165100D02*
Y170180D01*
X329350Y176800D02*
Y178800D01*
X343750Y176800D02*
Y178800D01*
X897470Y880380D02*
Y882380D01*
X883070Y880380D02*
Y882380D01*
X386350Y165950D02*
X388350D01*
X386350Y151550D02*
X388350D01*
X510390Y213890D02*
X517090D01*
X510390Y184890D02*
X517090D01*
X510390D02*
Y193190D01*
Y205590D02*
Y213890D01*
X523390Y196088D02*
Y202692D01*
X767500Y821690D02*
Y826770D01*
X781900Y821690D02*
Y826770D01*
X790360Y821690D02*
Y826770D01*
X804760Y821690D02*
Y826770D01*
X451700Y165100D02*
Y170180D01*
X437300Y165100D02*
Y170180D01*
X388620Y273470D02*
X393700D01*
X388620Y287870D02*
X393700D01*
X388620Y251880D02*
X393700D01*
X388620Y266280D02*
X393700D01*
D46*
X366722Y205229D02*
Y198565D01*
X365389Y197232D01*
X362723D01*
X361390Y198565D01*
Y205229D01*
X358724Y197232D02*
X356058D01*
X357391D01*
Y205229D01*
X358724Y203896D01*
M02*
