G04*
G04 #@! TF.GenerationSoftware,Altium Limited,Altium Designer,26.6.0 (10)*
G04*
G04 Layer_Color=8388736*
G04 Board_Origin=0|0*
%FSLAX44Y44*%
%MOMM*%
G71*
G04*
G04 #@! TF.SameCoordinates,77C13DDD-3119-4C89-82F0-60C0F8CB9652*
G04*
G04*
G04 #@! TF.FilePolarity,Negative*
G04*
G01*
G75*
%ADD17R,1.5716X1.1416*%
%ADD18R,0.9016X0.9016*%
%ADD19C,2.6016*%
%ADD20C,8.2166*%
%ADD21C,1.9558*%
%ADD22C,1.7516*%
%ADD23C,6.1016*%
%ADD24C,1.3716*%
%ADD25C,0.7016*%
D17*
X396240Y785370D02*
D03*
Y766570D02*
D03*
X886461Y766560D02*
D03*
Y785360D02*
D03*
X680720Y767840D02*
D03*
Y786640D02*
D03*
X606600Y767840D02*
D03*
Y786640D02*
D03*
D18*
X483870Y206890D02*
D03*
Y191890D02*
D03*
X883111Y804020D02*
D03*
Y819020D02*
D03*
X683776Y805300D02*
D03*
Y820300D02*
D03*
X603250Y805300D02*
D03*
Y820300D02*
D03*
X394454Y802760D02*
D03*
Y817760D02*
D03*
X805180Y206890D02*
D03*
Y191890D02*
D03*
D19*
X714587Y153660D02*
D03*
X574463D02*
D03*
X557529Y814070D02*
D03*
X445769D02*
D03*
X836931Y767070D02*
D03*
X836930Y814070D02*
D03*
X836931Y861070D02*
D03*
X714586Y200660D02*
D03*
X730249Y814080D02*
D03*
X574463Y200660D02*
D03*
X574463Y247660D02*
D03*
X714587D02*
D03*
X730250Y767080D02*
D03*
Y861080D02*
D03*
X557530Y767070D02*
D03*
Y861070D02*
D03*
X445770Y767070D02*
D03*
Y861070D02*
D03*
D20*
X957580Y773430D02*
D03*
X854710Y444500D02*
D03*
X574463Y440690D02*
D03*
X434339D02*
D03*
X295910Y535517D02*
D03*
Y415713D02*
D03*
Y295910D02*
D03*
X574463Y657860D02*
D03*
X430710D02*
D03*
X714587Y444500D02*
D03*
X854710Y661670D02*
D03*
X714587D02*
D03*
X957580Y889000D02*
D03*
X295910Y655320D02*
D03*
D21*
X204470Y686689D02*
D03*
Y635889D02*
D03*
X599863Y554990D02*
D03*
X549063D02*
D03*
X459275D02*
D03*
X599863Y339090D02*
D03*
X549063D02*
D03*
X459165D02*
D03*
X408475Y554990D02*
D03*
X408366Y339090D02*
D03*
X829310D02*
D03*
X880110D02*
D03*
X689187D02*
D03*
X739987D02*
D03*
X829310Y554990D02*
D03*
X880110D02*
D03*
X689187D02*
D03*
X739987D02*
D03*
X203200Y276479D02*
D03*
Y327279D02*
D03*
X205740Y396282D02*
D03*
Y447082D02*
D03*
X204470Y516086D02*
D03*
Y566886D02*
D03*
D22*
X875220Y981320D02*
D03*
Y1006720D02*
D03*
X722820D02*
D03*
Y981320D02*
D03*
X468820Y1006720D02*
D03*
X316420D02*
D03*
X468820Y981320D02*
D03*
X316420D02*
D03*
X849820Y1006720D02*
D03*
X824420D02*
D03*
X849820Y981320D02*
D03*
X824420D02*
D03*
X773620Y1006720D02*
D03*
X748220D02*
D03*
X773620Y981320D02*
D03*
X748220D02*
D03*
X672020Y1006720D02*
D03*
X646620D02*
D03*
X672020Y981320D02*
D03*
X646620D02*
D03*
X621220Y1006720D02*
D03*
X570420D02*
D03*
X621220Y981320D02*
D03*
X570420D02*
D03*
X545020Y1006720D02*
D03*
X519620D02*
D03*
X545020Y981320D02*
D03*
X519620D02*
D03*
X443420Y1006720D02*
D03*
X418020D02*
D03*
X443420Y981320D02*
D03*
X418020D02*
D03*
X367220Y1006720D02*
D03*
X341820D02*
D03*
X367220Y981320D02*
D03*
X341820D02*
D03*
X265620Y1006720D02*
D03*
X240220D02*
D03*
X265620Y981320D02*
D03*
X240220D02*
D03*
X799020Y1006720D02*
D03*
Y981320D02*
D03*
X697420Y1006720D02*
D03*
Y981320D02*
D03*
X595820Y1006720D02*
D03*
Y981320D02*
D03*
X494220Y1006720D02*
D03*
Y981320D02*
D03*
X392620Y1006720D02*
D03*
Y981320D02*
D03*
X291020Y1006720D02*
D03*
Y981320D02*
D03*
X875220Y955930D02*
D03*
X722820D02*
D03*
X875220Y930530D02*
D03*
X722820D02*
D03*
X468820Y955930D02*
D03*
X316420D02*
D03*
X468820Y930530D02*
D03*
X316420D02*
D03*
X849820Y955930D02*
D03*
X824420D02*
D03*
X849820Y930530D02*
D03*
X824420D02*
D03*
X773620Y955930D02*
D03*
X748220D02*
D03*
X773620Y930530D02*
D03*
X748220D02*
D03*
X672020Y955930D02*
D03*
X646620D02*
D03*
X672020Y930530D02*
D03*
X646620D02*
D03*
X621220Y955930D02*
D03*
X570420D02*
D03*
X621220Y930530D02*
D03*
X570420D02*
D03*
X545020Y955930D02*
D03*
X519620D02*
D03*
X545020Y930530D02*
D03*
X519620D02*
D03*
X443420Y955930D02*
D03*
X418020D02*
D03*
X443420Y930530D02*
D03*
X418020D02*
D03*
X367220Y955930D02*
D03*
X341820D02*
D03*
X367220Y930530D02*
D03*
X341820D02*
D03*
X265620Y955930D02*
D03*
X240220D02*
D03*
X265620Y930530D02*
D03*
X240220D02*
D03*
X799020Y955930D02*
D03*
Y930530D02*
D03*
X697420Y955930D02*
D03*
Y930530D02*
D03*
X595820Y955930D02*
D03*
Y930530D02*
D03*
X494220Y955930D02*
D03*
Y930530D02*
D03*
X392620Y955930D02*
D03*
Y930530D02*
D03*
X291020Y955930D02*
D03*
Y930530D02*
D03*
D23*
X925830Y1006530D02*
D03*
X951230Y149280D02*
D03*
X189230Y1006530D02*
D03*
X151130Y149280D02*
D03*
D24*
X353060Y152400D02*
D03*
D25*
X498146Y187364D02*
D03*
X472440Y214630D02*
D03*
X872490Y819483D02*
D03*
X793750Y206890D02*
D03*
M02*
