G04*
G04 #@! TF.GenerationSoftware,Altium Limited,Altium Designer,26.6.0 (10)*
G04*
G04 Layer_Color=16711935*
G04 Board_Origin=0|0*
%FSLAX44Y44*%
%MOMM*%
G71*
G04*
G04 #@! TF.SameCoordinates,77C13DDD-3119-4C89-82F0-60C0F8CB9652*
G04*
G04*
G04 #@! TF.FilePolarity,Negative*
G04*
G01*
G75*
%ADD17R,1.5716X1.1416*%
%ADD19C,2.6016*%
%ADD20C,8.2166*%
%ADD21C,1.9558*%
%ADD22C,1.7516*%
%ADD23C,6.1016*%
%ADD24C,1.3716*%
%ADD25C,0.7016*%
%ADD38R,1.2446X2.7940*%
G04:AMPARAMS|DCode=41|XSize=1.4216mm|YSize=0.7016mm|CornerRadius=0.1258mm|HoleSize=0mm|Usage=FLASHONLY|Rotation=90.000|XOffset=0mm|YOffset=0mm|HoleType=Round|Shape=RoundedRectangle|*
%AMROUNDEDRECTD41*
21,1,1.4216,0.4500,0,0,90.0*
21,1,1.1700,0.7016,0,0,90.0*
1,1,0.2516,0.2250,0.5850*
1,1,0.2516,0.2250,-0.5850*
1,1,0.2516,-0.2250,-0.5850*
1,1,0.2516,-0.2250,0.5850*
%
%ADD41ROUNDEDRECTD41*%
%ADD42C,1.1016*%
G04:AMPARAMS|DCode=43|XSize=1.3116mm|YSize=0.6916mm|CornerRadius=0.1246mm|HoleSize=0mm|Usage=FLASHONLY|Rotation=0.000|XOffset=0mm|YOffset=0mm|HoleType=Round|Shape=RoundedRectangle|*
%AMROUNDEDRECTD43*
21,1,1.3116,0.4425,0,0,0.0*
21,1,1.0625,0.6916,0,0,0.0*
1,1,0.2491,0.5313,-0.2213*
1,1,0.2491,-0.5313,-0.2213*
1,1,0.2491,-0.5313,0.2213*
1,1,0.2491,0.5313,0.2213*
%
%ADD43ROUNDEDRECTD43*%
%ADD44R,1.1416X1.5716*%
G04:AMPARAMS|DCode=45|XSize=1.4216mm|YSize=0.7016mm|CornerRadius=0.1258mm|HoleSize=0mm|Usage=FLASHONLY|Rotation=180.000|XOffset=0mm|YOffset=0mm|HoleType=Round|Shape=RoundedRectangle|*
%AMROUNDEDRECTD45*
21,1,1.4216,0.4500,0,0,180.0*
21,1,1.1700,0.7016,0,0,180.0*
1,1,0.2516,-0.5850,0.2250*
1,1,0.2516,0.5850,0.2250*
1,1,0.2516,0.5850,-0.2250*
1,1,0.2516,-0.5850,-0.2250*
%
%ADD45ROUNDEDRECTD45*%
D17*
X444500Y177040D02*
D03*
X466090D02*
D03*
X358140Y168400D02*
D03*
Y187200D02*
D03*
X423160Y158240D02*
D03*
Y177040D02*
D03*
X466090Y158240D02*
D03*
X890270Y871980D02*
D03*
X774700Y814830D02*
D03*
X797560D02*
D03*
X336550Y187200D02*
D03*
Y168400D02*
D03*
X890270Y890780D02*
D03*
X774700Y833630D02*
D03*
X797560D02*
D03*
X444500Y158240D02*
D03*
D19*
X714587Y153660D02*
D03*
X574463D02*
D03*
X557529Y814070D02*
D03*
X445769D02*
D03*
X836931Y767070D02*
D03*
X836930Y814070D02*
D03*
X836931Y861070D02*
D03*
X714586Y200660D02*
D03*
X730249Y814080D02*
D03*
X574463Y200660D02*
D03*
X574463Y247660D02*
D03*
X714587D02*
D03*
X730250Y767080D02*
D03*
Y861080D02*
D03*
X557530Y767070D02*
D03*
Y861070D02*
D03*
X445770Y767070D02*
D03*
Y861070D02*
D03*
D20*
X957580Y773430D02*
D03*
X854710Y444500D02*
D03*
X574463Y440690D02*
D03*
X434339D02*
D03*
X295910Y535517D02*
D03*
Y415713D02*
D03*
Y295910D02*
D03*
X574463Y657860D02*
D03*
X430710D02*
D03*
X714587Y444500D02*
D03*
X854710Y661670D02*
D03*
X714587D02*
D03*
X957580Y889000D02*
D03*
X295910Y655320D02*
D03*
D21*
X204470Y686689D02*
D03*
Y635889D02*
D03*
X599863Y554990D02*
D03*
X549063D02*
D03*
X459275D02*
D03*
X599863Y339090D02*
D03*
X549063D02*
D03*
X459165D02*
D03*
X408475Y554990D02*
D03*
X408366Y339090D02*
D03*
X829310D02*
D03*
X880110D02*
D03*
X689187D02*
D03*
X739987D02*
D03*
X829310Y554990D02*
D03*
X880110D02*
D03*
X689187D02*
D03*
X739987D02*
D03*
X203200Y276479D02*
D03*
Y327279D02*
D03*
X205740Y396282D02*
D03*
Y447082D02*
D03*
X204470Y516086D02*
D03*
Y566886D02*
D03*
D22*
X875220Y981320D02*
D03*
Y1006720D02*
D03*
X722820D02*
D03*
Y981320D02*
D03*
X468820Y1006720D02*
D03*
X316420D02*
D03*
X468820Y981320D02*
D03*
X316420D02*
D03*
X849820Y1006720D02*
D03*
X824420D02*
D03*
X849820Y981320D02*
D03*
X824420D02*
D03*
X773620Y1006720D02*
D03*
X748220D02*
D03*
X773620Y981320D02*
D03*
X748220D02*
D03*
X672020Y1006720D02*
D03*
X646620D02*
D03*
X672020Y981320D02*
D03*
X646620D02*
D03*
X621220Y1006720D02*
D03*
X570420D02*
D03*
X621220Y981320D02*
D03*
X570420D02*
D03*
X545020Y1006720D02*
D03*
X519620D02*
D03*
X545020Y981320D02*
D03*
X519620D02*
D03*
X443420Y1006720D02*
D03*
X418020D02*
D03*
X443420Y981320D02*
D03*
X418020D02*
D03*
X367220Y1006720D02*
D03*
X341820D02*
D03*
X367220Y981320D02*
D03*
X341820D02*
D03*
X265620Y1006720D02*
D03*
X240220D02*
D03*
X265620Y981320D02*
D03*
X240220D02*
D03*
X799020Y1006720D02*
D03*
Y981320D02*
D03*
X697420Y1006720D02*
D03*
Y981320D02*
D03*
X595820Y1006720D02*
D03*
Y981320D02*
D03*
X494220Y1006720D02*
D03*
Y981320D02*
D03*
X392620Y1006720D02*
D03*
Y981320D02*
D03*
X291020Y1006720D02*
D03*
Y981320D02*
D03*
X875220Y955930D02*
D03*
X722820D02*
D03*
X875220Y930530D02*
D03*
X722820D02*
D03*
X468820Y955930D02*
D03*
X316420D02*
D03*
X468820Y930530D02*
D03*
X316420D02*
D03*
X849820Y955930D02*
D03*
X824420D02*
D03*
X849820Y930530D02*
D03*
X824420D02*
D03*
X773620Y955930D02*
D03*
X748220D02*
D03*
X773620Y930530D02*
D03*
X748220D02*
D03*
X672020Y955930D02*
D03*
X646620D02*
D03*
X672020Y930530D02*
D03*
X646620D02*
D03*
X621220Y955930D02*
D03*
X570420D02*
D03*
X621220Y930530D02*
D03*
X570420D02*
D03*
X545020Y955930D02*
D03*
X519620D02*
D03*
X545020Y930530D02*
D03*
X519620D02*
D03*
X443420Y955930D02*
D03*
X418020D02*
D03*
X443420Y930530D02*
D03*
X418020D02*
D03*
X367220Y955930D02*
D03*
X341820D02*
D03*
X367220Y930530D02*
D03*
X341820D02*
D03*
X265620Y955930D02*
D03*
X240220D02*
D03*
X265620Y930530D02*
D03*
X240220D02*
D03*
X799020Y955930D02*
D03*
Y930530D02*
D03*
X697420Y955930D02*
D03*
Y930530D02*
D03*
X595820Y955930D02*
D03*
Y930530D02*
D03*
X494220Y955930D02*
D03*
Y930530D02*
D03*
X392620Y955930D02*
D03*
Y930530D02*
D03*
X291020Y955930D02*
D03*
Y930530D02*
D03*
D23*
X925830Y1006530D02*
D03*
X951230Y149280D02*
D03*
X189230Y1006530D02*
D03*
X151130Y149280D02*
D03*
D24*
X353060Y152400D02*
D03*
D25*
X498146Y187364D02*
D03*
X472440Y214630D02*
D03*
X872490Y819483D02*
D03*
X793750Y206890D02*
D03*
D38*
X397129Y226060D02*
D03*
X367411D02*
D03*
D41*
X892050Y853280D02*
D03*
X882550Y833280D02*
D03*
X901550D02*
D03*
D42*
X882550Y816383D02*
D03*
D43*
X403710Y197460D02*
D03*
Y178460D02*
D03*
X378610D02*
D03*
Y187960D02*
D03*
Y197460D02*
D03*
X403710Y187960D02*
D03*
D44*
X781560Y206890D02*
D03*
X762760D02*
D03*
X490730Y229870D02*
D03*
X471930D02*
D03*
X527560D02*
D03*
X508760D02*
D03*
X400560Y259080D02*
D03*
Y280670D02*
D03*
X396750Y158750D02*
D03*
X377950D02*
D03*
X381760Y280670D02*
D03*
Y259080D02*
D03*
D45*
X506890Y199390D02*
D03*
X526890Y189890D02*
D03*
Y208890D02*
D03*
M02*
